<svg width="808" height="652" viewBox="0 0 808 652" fill="none" xmlns="http://www.w3.org/2000/svg">
<g clip-path="url(#clip0_4_463)">
<path d="M531.942 364.777C514.888 375.003 484.503 387.814 453.453 374.647L433.381 366.135L473.602 321.06C441.508 285.678 423.754 239.61 423.805 191.847C423.857 144.083 441.71 98.0531 473.88 62.7408C506.051 27.4284 550.229 5.36843 597.793 0.866611C645.356 -3.63521 692.891 9.74428 731.119 38.3935C769.346 67.0428 795.523 108.906 804.539 155.811C813.556 202.716 804.765 251.297 779.882 292.071C755 332.845 715.812 362.886 669.967 376.33C624.123 389.775 574.912 385.657 531.941 364.781L531.942 364.777ZM454.879 191.742C454.79 213.76 459.26 235.558 468.007 255.765C476.754 275.972 489.589 294.152 505.704 309.159L516.799 319.583L491.489 347.947C504.673 345.273 516.156 338.143 521.978 334.002L529.967 328.319L538.559 333.038C562.309 346.038 588.95 352.851 616.026 352.849C704.884 352.849 777.176 280.578 777.176 191.743C777.176 102.908 704.885 30.6353 616.027 30.6353C527.17 30.6353 454.878 102.904 454.878 191.742H454.879Z" fill="#090814"/>
<path d="M439.254 191.742C439.269 153.025 452.007 115.385 475.507 84.6117C499.008 53.8382 531.97 31.6353 569.325 21.4177C606.679 11.2001 646.356 13.5338 682.254 28.0598C718.152 42.5859 748.283 68.4997 768.012 101.816C787.741 135.132 795.976 174.005 791.45 212.457C786.924 250.908 769.888 286.809 742.962 314.636C716.036 342.464 680.711 360.677 642.421 366.475C604.131 372.274 564.995 365.336 531.034 346.728C518.813 355.42 489.004 372.757 459.555 360.269L495.006 320.542C477.384 304.036 463.342 284.086 453.752 261.93C444.161 239.773 439.227 215.884 439.254 191.742Z" fill="#F2F2F2"/>
<path d="M762.687 192.124C762.685 147.959 746.141 105.395 716.315 72.8142C686.489 40.2338 645.542 19.9984 601.538 16.0931C606.689 15.6418 611.895 15.3984 617.161 15.3984C640.375 15.3984 663.362 19.9696 684.809 28.8509C706.257 37.7322 725.744 50.7497 742.159 67.1603C758.574 83.5708 771.595 103.053 780.478 124.494C789.362 145.936 793.935 168.916 793.935 192.124C793.935 215.332 789.362 238.313 780.478 259.755C771.595 281.196 758.574 300.678 742.159 317.089C725.744 333.499 706.257 346.517 684.809 355.398C663.362 364.279 640.375 368.85 617.161 368.85C611.903 368.85 606.704 368.603 601.562 368.154C645.561 364.243 686.502 344.005 716.323 311.426C746.144 278.846 762.684 236.286 762.687 192.124Z" fill="#E6E6E6"/>
<path d="M208.672 610.288C164.5 610.311 121.663 595.154 87.3394 567.358C53.0158 539.562 29.2916 500.816 20.143 457.614C10.9943 414.412 16.9771 369.378 37.0887 330.061C57.2002 290.744 90.2184 259.532 130.61 241.657C171.001 223.782 216.31 220.33 258.945 231.878C301.579 243.427 338.947 269.275 364.787 305.091C390.626 340.907 403.367 384.513 400.873 428.603C398.38 472.692 380.803 514.585 351.09 547.261L391.311 592.337L371.24 600.849C340.189 614.016 309.805 601.204 292.75 590.979C266.542 603.68 237.797 610.282 208.672 610.288ZM208.672 256.836C119.814 256.836 47.5224 329.108 47.5224 417.943C47.5224 506.777 119.814 579.049 208.672 579.049C235.755 579.051 262.403 572.236 286.157 559.231L294.735 554.519L302.724 560.201C308.547 564.341 320.03 571.473 333.213 574.147L307.903 545.782L318.998 535.359C335.114 520.351 347.949 502.172 356.696 481.965C365.442 461.758 369.912 439.96 369.824 417.941C369.824 329.107 297.532 256.835 208.674 256.835L208.672 256.836Z" fill="#090814"/>
<path d="M385.445 417.942C385.43 379.225 372.693 341.585 349.192 310.812C325.691 280.038 292.729 257.835 255.375 247.617C218.021 237.4 178.343 239.734 142.445 254.26C106.547 268.786 76.4163 294.7 56.6872 328.016C36.9581 361.332 28.7232 400.205 33.2492 438.657C37.7751 477.108 54.8112 513.008 81.7372 540.836C108.663 568.663 143.988 586.877 182.278 592.675C220.569 598.473 259.704 591.535 293.666 572.928C305.887 581.62 335.695 598.957 365.144 586.469L329.693 546.742C347.315 530.236 361.357 510.286 370.948 488.129C380.538 465.973 385.473 442.083 385.445 417.942Z" fill="#F2F2F2"/>
<path d="M63.1463 417.049C63.1489 372.883 79.6922 330.319 109.518 297.739C139.344 265.158 180.291 244.923 224.296 241.018C219.145 240.566 213.938 240.323 208.672 240.323C161.789 240.323 116.826 258.942 83.6746 292.085C50.5232 325.227 31.8989 370.178 31.8989 417.049C31.8989 463.92 50.5232 508.871 83.6746 542.013C116.826 575.156 161.789 593.775 208.672 593.775C213.93 593.775 219.13 593.528 224.272 593.078C180.272 589.167 139.331 568.929 109.51 536.35C79.6893 503.771 63.1491 461.21 63.1463 417.049Z" fill="#E6E6E6"/>
<path d="M657.526 135.596C645.961 116.058 623.078 115.148 623.078 115.148C623.078 115.148 600.78 112.297 586.477 142.053C573.145 169.788 554.744 196.567 583.514 203.06L588.711 186.89L591.929 204.264C596.025 204.559 600.134 204.629 604.238 204.474C635.049 203.48 664.391 204.765 663.447 193.712C662.191 179.018 668.655 154.395 657.526 135.596Z" fill="#090814"/>
<path d="M581.872 306.696C581.532 308.845 581.039 310.967 580.397 313.046C579.672 315.08 578.555 316.962 577.894 319.017C575.784 325.569 578.709 332.876 583.379 337.932C587.428 342.3 592.655 345.404 598.428 346.869C602.68 347.778 607.016 348.234 611.364 348.228C623.383 348.632 635.72 349 647.118 345.137C650.718 343.886 654.194 342.307 657.504 340.419C658.549 339.922 659.469 339.197 660.199 338.299C660.962 336.983 661.301 335.463 661.171 333.947C661.146 328.851 660.113 323.782 660.358 318.692C660.495 315.873 661.022 313.056 660.762 310.245C660.403 307.053 659.065 304.05 656.933 301.647C654.801 299.244 651.978 297.559 648.85 296.821C645.618 296.128 642.266 296.505 638.976 296.821C630.435 297.642 621.857 298.025 613.277 297.97C604.51 297.915 595.798 296.577 587.075 296.437C584.495 296.395 584.55 297.19 583.725 299.686C582.969 301.983 582.35 304.324 581.872 306.694V306.696Z" fill="#090814"/>
<path d="M606.751 180.872C606.489 183.11 605.737 185.262 604.548 187.176C603.023 189.261 600.536 190.452 598.892 192.448C596.422 195.451 596.28 199.678 596.266 203.566C596.257 207.147 596.329 210.968 598.327 213.942C599.749 215.789 601.514 217.345 603.526 218.524C611.019 223.572 619.115 228.711 628.149 228.878C631.892 228.946 635.906 227.98 638.369 225.162C639.432 223.838 640.268 222.346 640.843 220.748C643.153 215.055 644.553 209.035 644.992 202.907C645.325 200.027 645.056 197.108 644.202 194.337C643.104 191.277 640.886 188.761 639.419 185.86C637.685 182.411 637.05 178.514 637.601 174.693C637.674 174.425 637.651 174.14 637.537 173.886C637.417 173.75 637.266 173.643 637.098 173.575C636.929 173.507 636.747 173.478 636.566 173.492L618.652 172.202C616.984 172.12 615.323 171.93 613.679 171.634C612.714 171.438 610.163 170.067 609.242 170.431C607.547 171.106 607.1 179.043 606.751 180.872Z" fill="#ED9DA0"/>
<path d="M623.882 183.273C638.396 183.273 650.162 171.51 650.162 157C650.162 142.49 638.396 130.727 623.882 130.727C609.368 130.727 597.602 142.49 597.602 157C597.602 171.51 609.368 183.273 623.882 183.273Z" fill="#ED9DA0"/>
<path d="M610.437 215.846C611.735 217.349 613.3 218.599 615.052 219.534C616.88 220.289 618.842 220.662 620.819 220.631C625.556 220.764 630.692 219.896 633.988 216.491C638.236 212.102 638.096 205.023 641.426 199.902C641.694 199.438 642.06 199.038 642.498 198.729C643.057 198.425 643.688 198.28 644.323 198.309C648.529 198.27 652.192 200.997 655.498 203.595C657.054 204.666 658.389 206.025 659.431 207.601C660.084 208.876 660.532 210.247 660.757 211.662C662.397 219.669 662.929 227.855 663.457 236.011C663.748 240.517 664.039 245.025 664.017 249.542C663.945 264.414 660.488 279.038 657.048 293.508C656.605 295.373 655.999 297.456 654.303 298.35C653.547 298.69 652.735 298.888 651.907 298.935C642.078 300.258 632.187 301.081 622.274 301.401C618.404 301.461 614.537 301.367 610.671 301.121C610.006 301.112 609.346 300.997 608.717 300.781C607.863 300.37 607.129 299.747 606.586 298.971C601.222 292.215 600.905 282.873 600.94 274.248C601.023 253.159 601.777 232.087 603.201 211.032C603.318 209.294 603.344 207.184 602.09 205.816C604.529 209.43 607.324 212.79 610.433 215.847L610.437 215.846Z" fill="#277DD1"/>
<path d="M604.87 185.51C603.982 187.116 597.438 191.105 596.175 192.436C589.116 199.875 576.233 199.595 569.777 207.562C567.506 210.365 566.326 213.887 565.458 217.389C564.23 222.337 563.575 227.742 565.631 232.412C567.61 236.905 571.775 240.011 574.603 244.024C577.708 248.43 579.104 253.782 580.442 259.003C581.43 262.858 582.426 266.809 582.041 270.771C581.603 275.276 579.423 279.399 578.136 283.738C576.849 288.077 576.627 293.244 579.603 296.653C581.789 299.158 585.219 300.15 588.497 300.709C592.695 301.34 596.929 301.708 601.173 301.812C604.92 301.978 609.051 302.014 611.932 299.608C614.205 297.713 615.193 294.638 615.32 291.682C615.285 288.722 614.993 285.771 614.448 282.862C614.044 279.821 613.894 276.753 613.766 273.688C613.19 259.937 613.111 246.178 613.53 232.41C613.741 229.548 613.6 226.671 613.111 223.844C612.303 220.161 610.317 216.869 608.655 213.485C605.336 207.111 603.834 199.947 604.312 192.777C604.814 185.408 608.029 179.794 604.87 185.51Z" fill="#277DD1"/>
<path d="M641.774 186.069C643.127 187.458 647.72 187.916 649.44 188.81C651.058 189.557 652.746 190.142 654.479 190.554C660.753 192.364 666.72 195.102 672.182 198.678C673.317 199.341 674.321 200.208 675.143 201.234C676.009 202.643 676.567 204.218 676.78 205.858C677.791 209.995 678.294 214.24 678.279 218.499C678.077 223.01 676.718 227.384 675.37 231.69L670.331 247.794C666.57 259.815 662.785 271.955 661.727 284.506C661.142 291.462 661.402 298.463 662.503 305.357C662.606 305.692 662.637 306.046 662.593 306.394C662.549 306.742 662.431 307.077 662.248 307.376C661.916 307.704 661.479 307.905 661.014 307.944C658.582 308.324 656.228 307.084 654.025 305.987C647.29 302.636 640.103 300.285 632.69 299.007C635.587 294.822 637.822 290.216 639.317 285.351C640.166 282.262 640.834 279.127 641.319 275.96L643.663 262.407C644.617 257.453 645.288 252.449 645.674 247.419C645.851 245.532 645.741 243.628 645.348 241.774C644.807 240.009 644.09 238.303 643.207 236.682C639.343 228.648 637.531 219.481 639.051 210.698C639.717 206.854 641.009 203.006 640.465 199.143C639.947 195.428 640.486 192.541 639.532 188.866C635.624 173.771 639.231 183.455 641.774 186.069Z" fill="#277DD1"/>
<path d="M569.711 220.263C567.949 223.916 565.005 227.028 564.003 230.959C563.613 232.795 563.446 234.672 563.505 236.549C563.331 239.377 563.611 242.215 564.334 244.955C564.894 246.687 565.804 248.287 566.455 249.985C567.369 252.359 567.776 254.897 567.65 257.438C567.473 260.957 566.278 264.374 566.184 267.896C566.036 273.435 568.6 278.642 571.1 283.588C571.73 282.03 572.692 280.628 573.92 279.48C575.148 278.333 576.612 277.467 578.21 276.944C579.807 276.421 581.5 276.254 583.169 276.453C584.838 276.652 586.443 277.214 587.872 278.098C588.445 277.395 588.717 276.493 588.628 275.591C588.812 269.164 588.991 262.738 589.163 256.311C589.434 246.371 589.691 236.299 587.405 226.625C586.373 222.256 584.766 217.904 581.819 214.514C580.268 212.73 575.003 208.03 572.457 210.029C571.311 210.928 571.579 213.375 571.398 214.614C571.125 216.574 570.554 218.481 569.705 220.269L569.711 220.263Z" fill="#277DD1"/>
<path d="M678.795 209.734C679.503 212.369 679.807 215.095 679.695 217.821C679.728 223.377 679.655 228.93 679.474 234.482C679.501 237.33 679.137 240.169 678.391 242.919C677.822 244.707 676.945 246.383 676.357 248.169C674.596 253.51 675.558 259.302 675.709 264.923C675.816 266.742 675.66 268.567 675.248 270.342C674.318 273.827 671.823 276.642 670.08 279.799C668.425 282.798 667.426 286.161 665.45 288.957C663.473 291.753 660.052 293.971 656.735 293.112C654.223 292.461 652.438 290.238 651.203 287.955C648.508 282.937 647.586 277.156 648.587 271.549C649.827 264.727 653.839 258.675 655.28 251.893C657.265 242.581 654.248 232.971 654.338 223.45C654.297 221.958 654.499 220.469 654.938 219.042C655.696 216.867 657.324 215.13 658.829 213.387C660.709 211.206 662.456 208.913 664.059 206.521C665.136 204.916 666.599 200.785 668.508 200.442C672.768 199.678 677.737 206.441 678.795 209.734Z" fill="#277DD1"/>
<path d="M547.591 302.557C545.233 301.964 542.804 301.706 540.375 301.79C537.823 301.931 535.33 302.614 533.061 303.793C530.793 304.972 528.802 306.62 527.221 308.627C525.639 310.635 524.503 312.957 523.888 315.437C523.273 317.918 523.194 320.501 523.655 323.015C524.243 325.738 525.206 328.366 526.514 330.826C528.428 334.708 530.723 338.582 534.266 341.07C536.4 342.438 538.699 343.531 541.107 344.325L559.765 351.352C562.51 352.386 565.256 353.42 568.027 354.381C581.953 359.193 596.473 362.079 611.181 362.958C615.657 363.377 620.17 363.148 624.58 362.279C625.646 362.14 626.623 361.612 627.324 360.797C627.679 360.179 627.889 359.488 627.937 358.777L629.086 350.742C629.342 349.623 629.307 348.456 628.985 347.354C628.309 346.059 627.216 345.029 625.883 344.432C613.616 337.388 599.294 333.503 588.968 323.834C586.537 321.558 584.503 317.951 581.55 316.405C578.201 314.652 574.257 313.652 570.796 312.036C563.233 308.499 555.792 304.441 547.591 302.557Z" fill="#090814"/>
<path opacity="0.1" d="M566.218 313.389C572.813 315.455 600.659 329.768 605.429 334.766C604.79 334.996 583.085 322.836 582.434 322.64C576.464 321.002 570.617 318.944 564.938 316.481C563.807 315.958 557.591 313.5 557.868 312.073C558.191 310.459 565.047 313.021 566.218 313.389Z" fill="black"/>
<path d="M648.49 367.123C648.864 367.152 649.235 367.044 649.535 366.82C649.667 366.651 649.763 366.458 649.82 366.251C649.876 366.045 649.89 365.829 649.863 365.617L649.832 354.67C646.683 353.17 643.161 352.689 639.704 352.227L623.573 350.072C623.944 350.121 621.048 357.017 621.495 357.938C622.276 359.561 628.251 360.999 629.937 361.765C635.801 364.424 641.893 367.352 648.49 367.123Z" fill="#ED9DA0"/>
<path d="M597.883 354.626C594.837 355.111 591.439 355.535 589.466 357.91C586.964 360.916 588.03 365.396 589.223 369.118C589.296 369.598 589.465 370.059 589.719 370.473C589.974 370.887 590.308 371.246 590.704 371.528C591.099 371.811 591.547 372.011 592.022 372.117C592.496 372.224 592.986 372.234 593.465 372.147C596.242 372.323 599.199 372.461 601.626 371.099C602.725 370.373 603.783 369.586 604.796 368.743C606.586 367.553 608.553 366.654 610.625 366.08C614.433 364.882 618.352 364.075 622.324 363.67C623.888 363.6 625.437 363.328 626.932 362.862C627.679 362.621 628.36 362.212 628.923 361.666C629.486 361.119 629.916 360.45 630.178 359.711C630.741 357.722 629.583 355.694 628.474 353.949C627.196 351.665 625.537 349.616 623.569 347.89C620.563 345.556 619.076 347.348 616.048 348.842C610.318 351.669 604.195 353.62 597.885 354.628L597.883 354.626Z" fill="#ED9DA0"/>
<path d="M589.925 357.366L570.586 351.652C568.267 350.844 565.843 350.374 563.389 350.257C562.161 350.207 560.936 350.419 559.796 350.88C558.656 351.341 557.628 352.039 556.78 352.929C555.28 354.689 554.851 357.093 554.477 359.375L553.677 364.255C553.144 366.715 552.993 369.242 553.23 371.748C553.358 373.001 553.77 374.209 554.435 375.278C555.1 376.348 556.001 377.252 557.068 377.922C559.744 379.382 563.027 378.669 566.01 378.058C572.043 376.825 578.179 376.167 584.337 376.093C586.652 376.066 589.084 376.093 591.125 375.011C592.313 374.308 593.311 373.325 594.033 372.148C594.755 370.972 595.178 369.636 595.266 368.259C595.646 364.094 594.256 358.649 589.925 357.366Z" fill="#2F2E41"/>
<path d="M656.097 352.39C658.604 351.951 660.817 350.526 663.219 349.686C666.6 348.502 670.265 348.502 673.847 348.516C675.164 348.395 676.488 348.661 677.658 349.279C679.235 350.329 679.64 352.431 679.909 354.307L681.525 365.627C681.958 367.739 682.003 369.912 681.657 372.04C681.47 373.103 681.002 374.095 680.3 374.915C679.599 375.735 678.691 376.352 677.67 376.701C675.145 377.358 672.662 375.743 670.275 374.682C664.307 372.03 657.37 372.708 651.147 370.726C650.552 370.606 649.99 370.362 649.496 370.009C649.003 369.657 648.59 369.203 648.285 368.679C648.072 368.05 647.997 367.383 648.063 366.723C648.169 363.088 647.401 358.116 648.497 354.639C649.484 351.511 653.299 352.39 656.097 352.39Z" fill="#2F2E41"/>
<path d="M697.022 297.998C700.886 297.029 704.892 296.756 708.852 297.19C712.015 297.538 715.274 298.418 717.583 300.607C720.394 303.27 721.297 307.39 721.371 311.26C721.495 318.971 718.937 326.484 714.135 332.518C712.961 334.045 711.565 335.387 709.994 336.5C708.3 337.559 706.495 338.428 704.61 339.093L662.826 355.569C651.833 359.904 640.802 364.253 629.335 367.109C629.022 367.26 628.681 367.347 628.333 367.365C627.986 367.382 627.638 367.33 627.311 367.212C626.984 367.093 626.683 366.91 626.428 366.674C626.172 366.437 625.967 366.152 625.823 365.835C622.162 360.607 619.09 354.99 616.665 349.087C616.55 348.947 616.471 348.781 616.434 348.603C616.396 348.426 616.403 348.242 616.452 348.068C616.501 347.893 616.591 347.733 616.715 347.601C616.839 347.469 616.993 347.368 617.164 347.308L646.718 330.331C648.885 329.202 650.905 327.812 652.734 326.191C654.011 324.954 655.057 323.498 655.822 321.893C656.435 320.614 656.492 317.595 657.275 316.649C658.041 315.723 660.662 315.65 661.872 315.285C663.579 314.763 665.251 314.131 666.878 313.394C673.489 310.438 679.377 306.141 685.714 302.679C689.269 300.647 693.067 299.075 697.018 298.001L697.022 297.998Z" fill="#090814"/>
<path opacity="0.1" d="M680.266 310.678C675.189 314.491 668.614 317.995 663.582 321.908C661.865 323.244 633.233 339.336 632.829 341.474C637.524 342.264 667.431 321.348 671.714 319.26C675.921 317.024 679.886 314.358 683.545 311.307C684.502 310.563 688.562 308.324 685.812 307.492C684.259 307.025 681.411 309.916 680.266 310.678Z" fill="black"/>
<path d="M645.328 186.438H600.757C598.946 186.438 597.21 187.157 595.929 188.437C594.649 189.717 593.93 191.453 593.93 193.263V195.763H593.446V201.353H593.93V205.266H593.446V208.62H593.93V249.868C593.93 251.678 594.649 253.414 595.929 254.694C597.21 255.975 598.946 256.694 600.757 256.694H645.329C647.14 256.694 648.877 255.975 650.157 254.694C651.438 253.414 652.157 251.678 652.157 249.868V193.263C652.157 192.367 651.98 191.479 651.637 190.651C651.294 189.823 650.791 189.07 650.157 188.437C649.523 187.803 648.77 187.3 647.942 186.957C647.113 186.614 646.225 186.438 645.328 186.438Z" fill="#D0CDE1"/>
<path d="M652.414 133.713L629.807 121.873L598.588 126.72L592.129 155.24L608.207 154.621L612.699 144.144V154.449L620.118 154.164L624.424 137.482L627.115 155.24L653.49 154.702L652.414 133.713Z" fill="#090814"/>
<path d="M575.625 294.306C576.648 296.044 578.101 297.489 579.845 298.503C580.989 299.025 582.237 299.279 583.494 299.245C584.752 299.212 585.984 298.891 587.099 298.309C589.325 297.115 591.147 295.287 592.334 293.058C594.791 288.716 595.299 283.53 594.993 278.555C594.687 273.58 593.623 268.681 593.154 263.719C592.811 260.112 592.784 256.484 592.757 252.86C592.672 252.098 592.832 251.329 593.213 250.664C593.87 250.01 594.72 249.585 595.637 249.452C600.595 247.979 603.887 243.333 606.242 238.731C607.818 235.658 609.189 232.299 608.885 228.858C608.581 225.418 606.108 221.954 602.671 221.602C599.843 221.314 597.222 223.112 595.179 225.095C590.024 230.128 586.711 236.747 585.773 243.889C585.324 247.387 585.452 250.98 584.501 254.374C582.469 261.624 576.113 266.069 572.945 272.592C569.457 279.785 571.384 287.946 575.625 294.306Z" fill="#ED9DA0"/>
<path d="M669.169 266.609C668.446 268.291 667.394 269.81 666.074 271.078C664.754 272.346 663.193 273.337 661.484 273.992C659.36 274.846 657.016 274.989 654.803 274.401C653.706 274.097 652.693 273.544 651.844 272.785C650.996 272.026 650.333 271.082 649.909 270.025C649.57 268.961 649.384 267.854 649.357 266.737C649.039 261.848 649.162 256.811 650.938 252.245C651.623 250.484 652.547 248.812 653.087 247.003C653.618 244.912 653.889 242.763 653.895 240.606L654.479 227.266C654.574 226.298 654.506 225.32 654.277 224.374C653.694 222.444 651.89 221.19 650.237 220.038C646.238 217.259 642.287 214.014 640.35 209.548C639.685 208.204 639.447 206.69 639.667 205.207C640.214 202.558 642.887 200.842 645.525 200.265C647.254 199.887 649.042 199.863 650.781 200.194C652.52 200.525 654.174 201.205 655.643 202.192C657.112 203.179 658.366 204.454 659.329 205.938C660.292 207.423 660.945 209.087 661.248 210.831C661.509 212.336 661.505 213.874 661.659 215.394C661.983 218.619 663.007 221.727 663.649 224.904C665.226 232.731 664.409 240.82 665.972 248.645C667.282 255.182 672.201 259.452 669.169 266.609Z" fill="#ED9DA0"/>
<path d="M623.64 216.446C626.728 216.446 629.231 213.943 629.231 210.856C629.231 207.769 626.728 205.266 623.64 205.266C620.552 205.266 618.048 207.769 618.048 210.856C618.048 213.943 620.552 216.446 623.64 216.446Z" fill="#277DD1"/>
<path d="M16.4943 411.765C25.6039 411.765 32.9886 404.382 32.9886 395.275C32.9886 386.168 25.6039 378.785 16.4943 378.785C7.38475 378.785 0 386.168 0 395.275C0 404.382 7.38475 411.765 16.4943 411.765Z" fill="#090814"/>
<path d="M76.2854 444.231L67.9771 436.153L51.2939 441.334L52.8958 460.646L87.1984 459.054L76.6591 444.742L76.2854 444.231Z" fill="#ED9DA0"/>
<path d="M58.1143 444.064C72.8421 444.064 84.7813 432.128 84.7813 417.404C84.7813 402.68 72.8421 390.744 58.1143 390.744C43.3865 390.744 31.4473 402.68 31.4473 417.404C31.4473 432.128 43.3865 444.064 58.1143 444.064Z" fill="#ED9DA0"/>
<path d="M223.666 478.449C223.666 478.449 256.427 534.734 264.223 543.184C267.931 547.343 271.881 551.279 276.053 554.972C276.053 554.972 272.387 567.127 266.549 566.693C263.223 566.491 259.962 565.685 256.924 564.315C256.924 564.315 254.318 557.563 249.773 554.601C245.228 551.64 208.098 515.121 208.969 503.449C209.841 491.776 223.666 478.449 223.666 478.449Z" fill="#090814"/>
<path d="M106.993 558.771C106.993 558.771 141.924 585.876 189.396 560.406L193.488 557.396C193.488 557.396 186.583 572.924 185.943 577.134C185.2 582.015 167.226 610.607 164.292 611.977C161.359 613.348 160.713 614.611 160.713 614.611L173.161 628.308L177.764 624.921C177.764 624.921 195.71 599.502 200.959 594.852C206.207 590.203 231.215 542.245 231.215 542.245C231.215 542.245 240.777 524.177 216.914 522.818C193.052 521.459 182.069 527.962 182.069 527.962L139.72 534.688L106.993 558.771Z" fill="#090814"/>
<path d="M276.458 552.309L294.126 564.527C294.126 564.527 316.666 571.587 302.782 576.285C288.897 580.984 252.308 582.683 251.474 576.201C250.64 569.718 252.917 559.515 254.742 560.073C256.567 560.632 269.242 563.923 276.458 552.309Z" fill="#2F2E41"/>
<path d="M179.327 620.724L182.597 638.677C182.597 638.677 191.895 656.455 180.731 650.939C169.568 645.423 146.565 624.469 149.962 620.076C153.358 615.684 160.855 610.919 161.616 612.351C162.378 613.783 168.011 623.366 179.327 620.724Z" fill="#2F2E41"/>
<path d="M145.637 540.585C145.637 540.585 121.892 568.3 107.476 561.569C93.0605 554.837 34.0816 476.852 40.8163 462.444C47.5509 448.037 49.8052 451.1 49.8052 451.1L80.2578 453.915L71.496 439.871C72.734 439.025 74.2466 438.68 75.7291 438.905C77.2117 439.129 78.5538 439.908 79.4851 441.083C83.3837 445.307 99.0347 455.86 104.487 470.764C109.939 485.667 125.949 484.926 125.949 484.926L145.637 540.585Z" fill="#277DD1"/>
<path d="M241.525 483.434L200.365 527.115L163.493 462.031L198.546 419.691L241.525 483.434Z" fill="#3F3D56"/>
<path d="M238.42 482.963L201.244 521.348L167.556 462.198L198.451 423.312L238.42 482.963Z" fill="white"/>
<path d="M198.348 525.447L200.368 527.117L199.075 529.641L141.519 546.767L140.975 544.796L143.594 542.089L198.348 525.447Z" fill="#B3B3B3"/>
<path d="M200.877 526.74L141.276 545.369L104.944 476.736L163.493 462.032L200.877 526.74Z" fill="#D0CDE1"/>
<path d="M196.389 517.431L193.832 519.312L165.451 470.05L168.38 468.679L196.389 517.431Z" fill="#3F3D56"/>
<path d="M190.522 520.171L165.31 527.686L136.688 477.025L161.635 471.285L190.522 520.171Z" fill="#3F3D56"/>
<path d="M119.495 482.582L124.715 481.106C124.715 481.106 153.826 477.816 154.25 486.963C154.675 496.11 120.807 491.865 120.807 491.865L116.292 485.73L119.495 482.582Z" fill="#ED9DA0"/>
<path d="M145.028 523.695L152.294 520.714C152.294 520.714 174.226 510.883 167.934 504.478C161.641 498.074 142.238 509.2 142.238 509.2L138.523 512.721L145.028 523.695Z" fill="#ED9DA0"/>
<path d="M138.553 509.543C138.553 509.543 150.383 521.331 147.692 524.099C145 526.868 100.857 563.285 89.9195 551.633C78.9822 539.981 25.6633 481.477 46.4087 476.46C67.1541 471.444 72.6354 483.173 72.6354 483.173L100.022 530.015L138.553 509.543Z" fill="#277DD1"/>
<path d="M103.13 473.737L122.564 480.325L122.246 494.351L101.693 492.133L103.13 473.737Z" fill="#277DD1"/>
<path opacity="0.2" d="M120.644 516.808L99.707 529.06L75.7852 492.279L98.8768 522.577L120.644 516.808Z" fill="black"/>
<path d="M46.4094 441.415C63.9424 441.415 78.1557 427.205 78.1557 409.677C78.1557 392.149 63.9424 377.939 46.4094 377.939C28.8764 377.939 14.6631 392.149 14.6631 409.677C14.6631 427.205 28.8764 441.415 46.4094 441.415Z" fill="#090814"/>
<path d="M217.94 486.204L195.711 453.691L205.134 442.03L228.232 475.476L217.94 486.204Z" fill="#277DD1"/>
<path d="M217.317 499.275L183.476 450.09L185.145 448.071L218.829 497.372L217.317 499.275Z" fill="#E6E6E6"/>
<path d="M212.955 504.06L179.114 454.875L180.784 452.856L214.467 502.158L212.955 504.06Z" fill="#E6E6E6"/>
<path d="M209.24 507.581L175.399 458.396L177.069 456.377L210.752 505.679L209.24 507.581Z" fill="#E6E6E6"/>
<path d="M60.4678 388.487H70.288C75.2601 388.487 80.0283 390.463 83.5437 393.978C87.0591 397.493 89.0339 402.261 89.0336 407.231H60.4678V388.487Z" fill="#090814"/>
<path d="M195.747 376.56L193.966 376.427C193.898 377.353 193.848 378.284 193.789 379.212L185.798 378.945L194.181 394.649L203.596 379.54L195.575 379.272C195.632 378.365 195.679 377.461 195.747 376.56Z" fill="#3F3D56"/>
<path d="M242.62 248.551L244.039 249.635C246.168 246.847 248.392 244.064 250.649 241.362L249.278 240.218C247.005 242.939 244.764 245.743 242.62 248.551Z" fill="#3F3D56"/>
<path d="M256.297 232.188L257.615 233.391C259.984 230.797 262.444 228.222 264.925 225.734L263.66 224.474C261.162 226.979 258.684 229.574 256.297 232.188Z" fill="#3F3D56"/>
<path d="M271.355 217.092L272.567 218.405C275.158 216.027 277.834 213.677 280.517 211.422L279.369 210.055C276.66 212.33 273.965 214.697 271.355 217.092Z" fill="#3F3D56"/>
<path d="M230.432 266.064L231.941 267.017C233.818 264.049 235.788 261.08 237.799 258.191L236.334 257.171C234.308 260.081 232.323 263.075 230.432 266.064Z" fill="#3F3D56"/>
<path d="M287.674 203.385L288.761 204.799C291.55 202.657 294.417 200.558 297.291 198.544L296.268 197.081C293.375 199.108 290.484 201.227 287.674 203.385Z" fill="#3F3D56"/>
<path d="M219.836 284.593L221.424 285.408C223.033 282.278 224.734 279.148 226.479 276.096L224.929 275.209C223.17 278.285 221.456 281.441 219.836 284.593Z" fill="#3F3D56"/>
<path d="M202.614 334.84L200.885 334.394C200.002 337.819 199.186 341.312 198.461 344.776L200.208 345.144C200.928 341.707 201.738 338.239 202.614 334.84Z" fill="#3F3D56"/>
<path d="M305.13 191.172L306.088 192.679C309.048 190.796 312.091 188.954 315.133 187.203L314.242 185.656C311.177 187.417 308.111 189.273 305.13 191.172Z" fill="#3F3D56"/>
<path d="M198.255 355.545L196.492 355.255C195.919 358.74 195.416 362.291 194.996 365.81L196.769 366.021C197.186 362.53 197.686 359.005 198.255 355.545Z" fill="#3F3D56"/>
<path d="M210.924 303.998L212.579 304.67C213.903 301.413 215.319 298.138 216.788 294.94L215.166 294.195C213.685 297.417 212.258 300.713 210.924 303.998Z" fill="#3F3D56"/>
<path d="M203.772 324.132L205.48 324.653C206.511 321.284 207.629 317.895 208.806 314.58L207.124 313.983C205.938 317.323 204.81 320.737 203.772 324.132Z" fill="#3F3D56"/>
<path d="M425.916 155.589C429.416 155.468 432.98 155.42 436.506 155.453L436.523 153.668C432.972 153.635 429.38 153.683 425.855 153.805L425.916 155.589Z" fill="#3F3D56"/>
<path d="M323.586 180.547L324.408 182.131C327.525 180.516 330.718 178.95 333.895 177.479L333.145 175.864C329.943 177.343 326.728 178.92 323.586 180.547Z" fill="#3F3D56"/>
<path d="M468.168 157.815C471.651 158.308 475.166 158.885 478.616 159.531L478.945 157.776C475.469 157.126 471.928 156.545 468.417 156.048L468.168 157.815Z" fill="#3F3D56"/>
<path d="M488.979 161.708C492.399 162.507 495.847 163.395 499.234 164.346L499.716 162.629C496.307 161.671 492.83 160.777 489.385 159.973L488.979 161.708Z" fill="#3F3D56"/>
<path d="M509.36 167.436C512.693 168.535 516.051 169.726 519.339 170.975L519.973 169.307C516.66 168.047 513.279 166.848 509.919 165.74L509.36 167.436Z" fill="#3F3D56"/>
<path d="M447.092 155.777C450.608 155.962 454.162 156.227 457.653 156.564L457.826 154.788C454.308 154.447 450.727 154.182 447.186 153.995L447.092 155.777Z" fill="#3F3D56"/>
<path d="M404.598 155.476L404.816 157.248C408.295 156.82 411.838 156.464 415.346 156.188L415.207 154.408C411.673 154.686 408.103 155.045 404.598 155.476Z" fill="#3F3D56"/>
<path d="M362.943 164.406L363.472 166.111C366.827 165.072 370.252 164.091 373.649 163.207L373.198 161.48C369.774 162.375 366.324 163.359 362.943 164.406Z" fill="#3F3D56"/>
<path d="M342.899 171.604L343.577 173.256C346.823 171.924 350.142 170.65 353.433 169.466L352.827 167.787C349.51 168.977 346.17 170.262 342.899 171.604Z" fill="#3F3D56"/>
<path d="M383.573 159.012L383.946 160.758C387.38 160.023 390.874 159.354 394.342 158.77L394.045 157.009C390.553 157.599 387.028 158.272 383.573 159.012Z" fill="#3F3D56"/>
<path d="M545.979 182.012L536.001 167.27L532.492 174.491C531.643 174.112 530.798 173.724 529.95 173.357L529.243 174.995C530.071 175.354 530.89 175.729 531.714 176.097L528.223 183.283L545.979 182.012Z" fill="#3F3D56"/>
</g>
<defs>
<clipPath id="clip0_4_463">
<rect width="808" height="652" fill="white"/>
</clipPath>
</defs>
</svg>
