<svg width="560" height="452" viewBox="0 0 560 452" fill="none" xmlns="http://www.w3.org/2000/svg">
<g clip-path="url(#clip0_3_328)">
<path d="M368.672 252.882C356.853 259.971 335.794 268.853 314.274 259.725L300.363 253.824L328.239 222.575C305.995 198.047 293.691 166.11 293.726 132.998C293.762 99.8859 306.135 67.9754 328.432 43.4951C350.728 19.0148 381.347 3.72163 414.312 0.600733C447.276 -2.52016 480.221 6.75519 506.716 26.6163C533.21 46.4775 551.352 75.4989 557.601 108.016C563.85 140.533 557.757 174.212 540.512 202.479C523.267 230.745 496.107 251.571 464.334 260.892C432.56 270.212 398.454 267.357 368.672 252.885L368.672 252.882ZM315.262 132.925C315.201 148.189 318.299 163.301 324.361 177.31C330.423 191.318 339.319 203.921 350.488 214.325L358.177 221.551L340.636 241.215C349.773 239.361 357.731 234.418 361.767 231.547L367.304 227.608L373.259 230.879C389.719 239.892 408.183 244.615 426.949 244.613C488.533 244.613 538.637 194.511 538.637 132.926C538.637 71.3409 488.534 21.2379 426.949 21.2379C365.365 21.2379 315.262 71.3381 315.262 132.925H315.262Z" fill="#090814"/>
<path d="M304.434 132.925C304.444 106.085 313.272 79.991 329.56 58.6572C345.847 37.3234 368.692 21.9312 394.582 14.8478C420.471 7.76448 447.97 9.38232 472.85 19.4525C497.73 29.5227 518.612 47.4875 532.286 70.584C545.96 93.6805 551.667 120.629 548.53 147.286C545.393 173.943 533.586 198.83 514.924 218.122C496.263 237.413 471.78 250.04 445.242 254.06C418.705 258.079 391.581 253.269 368.043 240.37C359.573 246.395 338.914 258.414 318.504 249.757L343.074 222.216C330.86 210.773 321.128 196.943 314.482 181.583C307.835 166.223 304.415 149.662 304.434 132.925Z" fill="#F2F2F2"/>
<path d="M528.595 133.191C528.593 102.573 517.128 73.065 496.456 50.4786C475.785 27.8921 447.405 13.8639 416.907 11.1566C420.477 10.8437 424.086 10.675 427.736 10.675C443.825 10.675 459.756 13.8439 474.62 20.0009C489.485 26.1579 502.991 35.1823 514.367 46.5589C525.744 57.9356 534.769 71.4416 540.926 86.3059C547.083 101.17 550.252 117.102 550.252 133.191C550.252 149.28 547.083 165.211 540.926 180.075C534.769 194.94 525.744 208.446 514.367 219.822C502.991 231.199 489.485 240.223 474.62 246.38C459.756 252.537 443.825 255.706 427.736 255.706C424.091 255.706 420.488 255.535 416.924 255.223C447.419 252.512 475.794 238.482 496.462 215.896C517.13 193.311 528.593 163.806 528.595 133.191Z" fill="#E6E6E6"/>
<path d="M144.624 423.083C114.01 423.099 84.3211 412.591 60.5324 393.322C36.7438 374.052 20.3013 347.192 13.9606 317.242C7.61998 287.291 11.7665 256.072 25.7052 228.815C39.6439 201.559 62.5277 179.921 90.5216 167.529C118.515 155.137 149.918 152.744 179.467 160.75C209.015 168.756 234.914 186.676 252.823 211.505C270.731 236.334 279.561 266.565 277.833 297.13C276.105 327.695 263.923 356.737 243.33 379.389L271.206 410.639L257.295 416.54C235.775 425.668 214.717 416.785 202.896 409.697C184.732 418.502 164.81 423.079 144.624 423.083ZM144.624 178.052C83.0397 178.052 32.9365 228.155 32.9365 289.739C32.9365 351.324 83.0397 401.427 144.624 401.427C163.395 401.428 181.863 396.703 198.327 387.688L204.272 384.421L209.809 388.36C213.844 391.23 221.803 396.175 230.94 398.028L213.399 378.364L221.088 371.138C232.257 360.734 241.153 348.132 247.215 334.123C253.277 320.114 256.375 305.003 256.313 289.739C256.313 228.154 206.21 178.051 144.626 178.051L144.624 178.052Z" fill="#090814"/>
<path d="M267.14 289.739C267.13 262.898 258.302 236.804 242.014 215.471C225.727 194.137 202.882 178.745 176.992 171.661C151.103 164.578 123.604 166.196 98.7243 176.266C73.8444 186.336 52.9617 204.301 39.2881 227.397C25.6145 250.494 19.9072 277.443 23.044 304.099C26.1808 330.756 37.9879 355.644 56.6495 374.935C75.3111 394.227 99.7936 406.853 126.332 410.873C152.869 414.893 179.993 410.083 203.531 397.183C212.001 403.209 232.66 415.228 253.07 406.57L228.5 379.03C240.714 367.587 250.446 353.756 257.092 338.396C263.739 323.037 267.159 306.475 267.14 289.739Z" fill="#F2F2F2"/>
<path d="M43.7645 289.12C43.7663 258.502 55.232 228.994 75.9035 206.408C96.575 183.821 124.954 169.793 155.452 167.086C151.882 166.773 148.274 166.604 144.624 166.604C112.131 166.604 80.9683 179.512 57.9921 202.488C35.0158 225.464 22.1079 256.627 22.1079 289.12C22.1079 321.613 35.0158 352.775 57.9921 375.751C80.9683 398.727 112.131 411.635 144.624 411.635C148.268 411.635 151.872 411.464 155.436 411.152C124.941 408.441 96.566 394.411 75.898 371.825C55.23 349.24 43.7665 319.735 43.7645 289.12Z" fill="#E6E6E6"/>
<path d="M455.711 94.0019C447.696 80.4577 431.836 79.8263 431.836 79.8263C431.836 79.8263 416.383 77.8502 406.469 98.4784C397.229 117.706 384.476 136.271 404.416 140.772L408.018 129.562L410.248 141.607C413.087 141.811 415.935 141.859 418.779 141.752C440.133 141.063 460.469 141.954 459.815 134.291C458.945 124.105 463.425 107.034 455.711 94.0019Z" fill="#090814"/>
<path d="M403.277 212.618C403.042 214.107 402.7 215.578 402.255 217.019C401.753 218.43 400.979 219.735 400.52 221.159C399.058 225.701 401.085 230.767 404.322 234.272C407.128 237.3 410.75 239.451 414.752 240.467C417.699 241.098 420.704 241.414 423.717 241.409C432.047 241.689 440.598 241.945 448.497 239.267C450.992 238.4 453.402 237.305 455.696 235.996C456.42 235.651 457.058 235.149 457.563 234.526C458.092 233.614 458.327 232.56 458.237 231.509C458.22 227.976 457.504 224.462 457.674 220.934C457.768 218.979 458.134 217.026 457.954 215.078C457.705 212.865 456.778 210.783 455.3 209.117C453.822 207.451 451.865 206.283 449.698 205.772C447.458 205.291 445.135 205.553 442.854 205.772C436.935 206.341 430.99 206.607 425.043 206.568C418.967 206.53 412.929 205.602 406.883 205.505C405.095 205.476 405.133 206.027 404.562 207.758C404.038 209.35 403.609 210.973 403.277 212.616V212.618Z" fill="#090814"/>
<path d="M420.52 125.39C420.339 126.941 419.818 128.433 418.993 129.76C417.936 131.205 416.213 132.031 415.073 133.415C413.362 135.497 413.263 138.427 413.253 141.122C413.247 143.605 413.297 146.254 414.682 148.315C415.668 149.596 416.891 150.675 418.285 151.492C423.478 154.992 429.089 158.554 435.351 158.67C437.945 158.717 440.727 158.047 442.434 156.094C443.171 155.176 443.75 154.142 444.149 153.034C445.749 149.087 446.72 144.914 447.024 140.666C447.255 138.669 447.068 136.646 446.477 134.724C445.716 132.603 444.178 130.859 443.162 128.848C441.96 126.457 441.52 123.755 441.902 121.106C441.952 120.92 441.936 120.722 441.857 120.546C441.774 120.452 441.67 120.378 441.553 120.331C441.436 120.284 441.31 120.264 441.184 120.273L428.769 119.38C427.613 119.322 426.461 119.191 425.322 118.985C424.653 118.85 422.885 117.899 422.247 118.152C421.072 118.619 420.762 124.122 420.52 125.39Z" fill="#ED9DA0"/>
<path d="M432.394 127.054C442.453 127.054 450.608 118.9 450.608 108.84C450.608 98.7811 442.453 90.6265 432.394 90.6265C422.334 90.6265 414.18 98.7811 414.18 108.84C414.18 118.9 422.334 127.054 432.394 127.054Z" fill="#ED9DA0"/>
<path d="M423.075 149.636C423.975 150.678 425.06 151.544 426.274 152.192C427.541 152.715 428.901 152.974 430.271 152.953C433.554 153.045 437.114 152.443 439.398 150.083C442.342 147.04 442.245 142.132 444.553 138.583C444.739 138.261 444.992 137.983 445.296 137.769C445.683 137.558 446.121 137.458 446.561 137.478C449.476 137.451 452.015 139.341 454.306 141.143C455.384 141.885 456.31 142.827 457.032 143.919C457.485 144.803 457.795 145.754 457.951 146.735C459.087 152.286 459.456 157.961 459.822 163.615C460.023 166.739 460.226 169.864 460.21 172.995C460.161 183.305 457.765 193.443 455.38 203.475C455.073 204.768 454.653 206.212 453.478 206.832C452.954 207.067 452.391 207.205 451.817 207.237C445.005 208.154 438.15 208.725 431.279 208.947C428.597 208.988 425.917 208.923 423.238 208.752C422.777 208.746 422.319 208.667 421.883 208.517C421.291 208.232 420.783 207.8 420.406 207.262C416.689 202.578 416.469 196.102 416.493 190.123C416.551 175.503 417.073 160.895 418.06 146.298C418.142 145.093 418.16 143.63 417.291 142.683C418.981 145.188 420.918 147.517 423.072 149.636L423.075 149.636Z" fill="#277DD1"/>
<path d="M419.217 128.605C418.601 129.719 414.066 132.484 413.19 133.407C408.298 138.564 399.37 138.37 394.895 143.893C393.321 145.836 392.503 148.278 391.901 150.705C391.051 154.135 390.596 157.882 392.022 161.12C393.393 164.235 396.28 166.388 398.24 169.17C400.392 172.225 401.359 175.934 402.286 179.554C402.971 182.227 403.661 184.966 403.395 187.713C403.091 190.835 401.58 193.694 400.688 196.702C399.797 199.71 399.643 203.292 401.705 205.655C403.22 207.392 405.597 208.08 407.869 208.467C410.779 208.904 413.713 209.16 416.655 209.232C419.252 209.347 422.115 209.372 424.111 207.704C425.687 206.39 426.371 204.258 426.46 202.209C426.435 200.157 426.233 198.111 425.855 196.094C425.575 193.986 425.471 191.859 425.382 189.735C424.983 180.202 424.928 170.663 425.218 161.118C425.365 159.135 425.267 157.14 424.929 155.18C424.369 152.627 422.992 150.345 421.84 147.999C419.54 143.58 418.499 138.614 418.83 133.643C419.178 128.534 421.406 124.642 419.217 128.605Z" fill="#277DD1"/>
<path d="M444.794 128.993C445.731 129.956 448.915 130.273 450.107 130.893C451.228 131.411 452.398 131.816 453.599 132.102C457.947 133.356 462.083 135.255 465.869 137.734C466.655 138.194 467.351 138.795 467.92 139.506C468.521 140.482 468.907 141.575 469.055 142.711C469.756 145.579 470.105 148.522 470.094 151.474C469.954 154.602 469.012 157.634 468.078 160.619L464.586 171.783C461.979 180.117 459.356 188.533 458.622 197.234C458.217 202.056 458.397 206.91 459.16 211.689C459.232 211.921 459.253 212.167 459.223 212.408C459.192 212.649 459.111 212.881 458.984 213.089C458.753 213.316 458.451 213.456 458.128 213.482C456.443 213.746 454.812 212.887 453.284 212.126C448.617 209.803 443.636 208.173 438.498 207.287C440.506 204.386 442.055 201.193 443.091 197.82C443.679 195.679 444.142 193.505 444.478 191.31L446.103 181.914C446.764 178.48 447.229 175.011 447.497 171.524C447.619 170.215 447.543 168.896 447.27 167.61C446.896 166.386 446.399 165.204 445.786 164.08C443.109 158.511 441.853 152.156 442.907 146.067C443.368 143.402 444.263 140.734 443.887 138.056C443.528 135.481 443.901 133.48 443.24 130.932C440.532 120.467 443.031 127.18 444.794 128.993Z" fill="#277DD1"/>
<path d="M394.849 152.697C393.628 155.23 391.588 157.387 390.893 160.112C390.623 161.386 390.507 162.687 390.548 163.988C390.428 165.948 390.622 167.916 391.123 169.815C391.511 171.016 392.142 172.125 392.593 173.303C393.226 174.948 393.508 176.708 393.421 178.469C393.299 180.909 392.47 183.277 392.405 185.719C392.303 189.559 394.079 193.169 395.812 196.598C396.249 195.517 396.916 194.546 397.767 193.75C398.618 192.954 399.632 192.354 400.74 191.992C401.847 191.629 403.02 191.513 404.177 191.651C405.333 191.79 406.446 192.179 407.437 192.792C407.833 192.304 408.022 191.679 407.96 191.054C408.088 186.598 408.212 182.143 408.331 177.688C408.519 170.797 408.697 163.815 407.112 157.108C406.397 154.079 405.283 151.062 403.241 148.712C402.166 147.475 398.517 144.217 396.752 145.603C395.959 146.226 396.144 147.923 396.019 148.782C395.829 150.14 395.433 151.462 394.845 152.702L394.849 152.697Z" fill="#277DD1"/>
<path d="M470.452 145.398C470.943 147.225 471.153 149.115 471.076 151.005C471.099 154.856 471.048 158.706 470.922 162.555C470.942 164.53 470.689 166.498 470.172 168.404C469.778 169.644 469.17 170.806 468.762 172.044C467.542 175.746 468.209 179.761 468.314 183.658C468.387 184.919 468.28 186.185 467.994 187.415C467.35 189.831 465.62 191.782 464.412 193.971C463.265 196.05 462.573 198.381 461.203 200.32C459.833 202.258 457.462 203.796 455.163 203.2C453.422 202.749 452.185 201.208 451.329 199.625C449.461 196.146 448.822 192.139 449.516 188.252C450.375 183.522 453.156 179.327 454.155 174.625C455.53 168.169 453.439 161.508 453.502 154.907C453.473 153.873 453.614 152.84 453.917 151.851C454.443 150.343 455.571 149.139 456.614 147.931C457.918 146.419 459.128 144.829 460.239 143.171C460.985 142.058 462 139.194 463.323 138.956C466.275 138.427 469.719 143.116 470.452 145.398Z" fill="#277DD1"/>
<path d="M379.518 209.748C377.884 209.337 376.201 209.158 374.517 209.217C372.748 209.314 371.02 209.787 369.448 210.605C367.876 211.422 366.496 212.565 365.4 213.956C364.304 215.348 363.517 216.958 363.09 218.677C362.664 220.397 362.609 222.188 362.929 223.93C363.337 225.818 364.004 227.64 364.911 229.346C366.237 232.037 367.827 234.722 370.283 236.447C371.762 237.395 373.355 238.154 375.024 238.704L387.956 243.575C389.859 244.292 391.761 245.009 393.682 245.675C403.334 249.011 413.397 251.012 423.591 251.621C426.693 251.912 429.82 251.753 432.877 251.151C433.616 251.054 434.293 250.688 434.779 250.123C435.025 249.695 435.17 249.216 435.204 248.723L436 243.152C436.177 242.376 436.153 241.568 435.93 240.804C435.462 239.906 434.704 239.192 433.78 238.778C425.279 233.895 415.352 231.201 408.196 224.498C406.511 222.92 405.101 220.42 403.054 219.348C400.733 218.133 398 217.439 395.601 216.319C390.359 213.867 385.202 211.054 379.518 209.748Z" fill="#090814"/>
<path opacity="0.1" d="M392.428 217.257C396.999 218.69 416.298 228.612 419.604 232.077C419.161 232.237 404.118 223.807 403.667 223.671C399.529 222.535 395.477 221.109 391.542 219.401C390.758 219.038 386.449 217.334 386.642 216.345C386.865 215.226 391.617 217.003 392.428 217.257Z" fill="black"/>
<path d="M449.448 254.508C449.707 254.528 449.965 254.454 450.173 254.298C450.264 254.181 450.331 254.047 450.37 253.904C450.409 253.761 450.419 253.612 450.399 253.465L450.378 245.875C448.196 244.836 445.755 244.502 443.359 244.182L432.179 242.688C432.436 242.722 430.429 247.503 430.739 248.141C431.28 249.266 435.421 250.263 436.59 250.794C440.654 252.637 444.876 254.667 449.448 254.508Z" fill="#ED9DA0"/>
<path d="M414.375 245.845C412.264 246.181 409.908 246.475 408.541 248.122C406.807 250.206 407.546 253.311 408.372 255.892C408.423 256.225 408.54 256.544 408.716 256.831C408.893 257.118 409.125 257.367 409.399 257.562C409.673 257.758 409.983 257.897 410.312 257.971C410.641 258.045 410.981 258.052 411.312 257.992C413.237 258.113 415.286 258.209 416.968 257.265C417.73 256.762 418.464 256.216 419.166 255.632C420.406 254.807 421.77 254.183 423.205 253.785C425.844 252.955 428.561 252.395 431.313 252.114C432.398 252.066 433.471 251.878 434.507 251.554C435.025 251.388 435.497 251.104 435.887 250.725C436.278 250.346 436.575 249.883 436.757 249.37C437.147 247.991 436.345 246.585 435.576 245.376C434.69 243.792 433.541 242.372 432.176 241.176C430.093 239.557 429.063 240.8 426.964 241.835C422.993 243.795 418.749 245.147 414.375 245.847L414.375 245.845Z" fill="#ED9DA0"/>
<path d="M408.859 247.744L395.456 243.783C393.848 243.223 392.168 242.898 390.468 242.816C389.616 242.781 388.767 242.929 387.977 243.248C387.187 243.567 386.475 244.052 385.887 244.669C384.847 245.889 384.55 247.555 384.291 249.137L383.736 252.52C383.367 254.226 383.262 255.978 383.426 257.715C383.515 258.584 383.801 259.421 384.262 260.162C384.723 260.904 385.347 261.531 386.086 261.995C387.941 263.007 390.216 262.513 392.284 262.089C396.465 261.235 400.718 260.779 404.986 260.727C406.59 260.708 408.276 260.727 409.69 259.977C410.514 259.489 411.206 258.808 411.706 257.992C412.206 257.177 412.499 256.251 412.56 255.296C412.823 252.408 411.86 248.634 408.859 247.744Z" fill="#2F2E41"/>
<path d="M454.721 244.295C456.458 243.99 457.992 243.003 459.656 242.42C462 241.6 464.54 241.6 467.023 241.609C467.936 241.526 468.853 241.709 469.664 242.138C470.757 242.866 471.038 244.323 471.224 245.624L472.344 253.472C472.644 254.936 472.675 256.442 472.436 257.917C472.306 258.654 471.981 259.342 471.495 259.91C471.009 260.479 470.379 260.906 469.672 261.149C467.922 261.604 466.201 260.484 464.547 259.749C460.41 257.91 455.603 258.38 451.29 257.006C450.878 256.923 450.488 256.754 450.146 256.51C449.804 256.265 449.518 255.951 449.306 255.587C449.159 255.151 449.106 254.689 449.152 254.231C449.226 251.711 448.694 248.264 449.453 245.854C450.137 243.686 452.781 244.295 454.721 244.295Z" fill="#2F2E41"/>
<path d="M483.085 206.587C485.763 205.916 488.539 205.726 491.284 206.027C493.476 206.269 495.735 206.879 497.335 208.396C499.283 210.243 499.909 213.099 499.961 215.782C500.046 221.127 498.273 226.336 494.945 230.519C494.131 231.577 493.164 232.507 492.075 233.279C490.901 234.013 489.65 234.616 488.344 235.077L459.384 246.499C451.766 249.504 444.12 252.519 436.173 254.499C435.956 254.603 435.72 254.664 435.479 254.676C435.238 254.688 434.997 254.652 434.77 254.57C434.543 254.488 434.335 254.361 434.158 254.197C433.981 254.033 433.839 253.836 433.739 253.616C431.202 249.992 429.073 246.098 427.392 242.005C427.312 241.908 427.257 241.793 427.231 241.67C427.206 241.547 427.21 241.419 427.244 241.299C427.278 241.178 427.34 241.067 427.426 240.975C427.512 240.883 427.619 240.813 427.737 240.772L448.221 229.003C449.723 228.22 451.123 227.256 452.39 226.133C453.275 225.275 454 224.266 454.531 223.153C454.955 222.266 454.995 220.173 455.537 219.518C456.068 218.876 457.885 218.825 458.724 218.572C459.907 218.21 461.066 217.772 462.193 217.261C466.775 215.211 470.855 212.233 475.248 209.833C477.711 208.424 480.344 207.334 483.082 206.589L483.085 206.587Z" fill="#090814"/>
<path opacity="0.1" d="M471.472 215.378C467.953 218.021 463.396 220.451 459.909 223.163C458.719 224.089 438.874 235.245 438.594 236.727C441.849 237.275 462.576 222.775 465.544 221.327C468.46 219.777 471.208 217.929 473.744 215.814C474.408 215.298 477.222 213.746 475.316 213.169C474.239 212.845 472.265 214.849 471.472 215.378Z" fill="black"/>
<path d="M447.257 129.248H416.366C415.111 129.248 413.907 129.747 413.02 130.634C412.133 131.522 411.634 132.725 411.634 133.98V135.713H411.299V139.589H411.634V142.301H411.299V144.626H411.634V173.221C411.634 174.476 412.133 175.68 413.02 176.567C413.907 177.455 415.111 177.953 416.366 177.953H447.258C448.513 177.953 449.716 177.455 450.604 176.567C451.491 175.68 451.99 174.476 451.99 173.221V133.98C451.99 133.359 451.867 132.743 451.63 132.169C451.392 131.595 451.043 131.073 450.604 130.634C450.164 130.194 449.642 129.846 449.068 129.608C448.494 129.37 447.879 129.248 447.257 129.248Z" fill="#D0CDE1"/>
<path d="M452.168 92.6964L436.5 84.489L414.863 87.8489L410.386 107.62L421.53 107.191L424.642 99.9281V107.072L429.785 106.874L432.769 95.3095L434.634 107.62L452.914 107.247L452.168 92.6964Z" fill="#090814"/>
<path d="M398.948 204.028C399.657 205.233 400.664 206.235 401.873 206.937C402.666 207.299 403.531 207.476 404.402 207.452C405.274 207.429 406.128 207.207 406.9 206.803C408.443 205.975 409.706 204.708 410.528 203.163C412.232 200.153 412.584 196.558 412.372 193.109C412.159 189.66 411.422 186.264 411.097 182.824C410.86 180.323 410.841 177.808 410.822 175.295C410.763 174.767 410.874 174.234 411.138 173.773C411.593 173.32 412.182 173.025 412.818 172.933C416.254 171.912 418.536 168.691 420.168 165.5C421.26 163.37 422.21 161.041 421.999 158.656C421.789 156.272 420.075 153.87 417.693 153.626C415.733 153.426 413.916 154.673 412.5 156.048C408.928 159.537 406.632 164.125 405.981 169.077C405.67 171.501 405.759 173.992 405.1 176.345C403.692 181.371 399.286 184.453 397.091 188.975C394.673 193.961 396.009 199.619 398.948 204.028Z" fill="#ED9DA0"/>
<path d="M463.781 184.827C463.28 185.993 462.55 187.046 461.635 187.925C460.721 188.805 459.639 189.491 458.454 189.946C456.982 190.537 455.358 190.637 453.824 190.229C453.063 190.018 452.362 189.635 451.773 189.109C451.185 188.582 450.726 187.928 450.432 187.195C450.197 186.458 450.068 185.69 450.049 184.916C449.829 181.527 449.914 178.034 451.145 174.869C451.62 173.648 452.26 172.489 452.635 171.235C453.002 169.786 453.191 168.296 453.195 166.8L453.599 157.553C453.665 156.881 453.618 156.203 453.459 155.548C453.055 154.209 451.805 153.34 450.659 152.542C447.888 150.615 445.149 148.366 443.807 145.27C443.346 144.338 443.181 143.288 443.334 142.26C443.712 140.424 445.565 139.234 447.394 138.834C448.592 138.572 449.831 138.555 451.036 138.785C452.241 139.014 453.388 139.486 454.406 140.17C455.424 140.854 456.293 141.738 456.961 142.767C457.628 143.796 458.081 144.95 458.291 146.159C458.472 147.202 458.469 148.268 458.575 149.322C458.8 151.558 459.51 153.712 459.954 155.915C461.048 161.341 460.482 166.949 461.564 172.374C462.472 176.905 465.882 179.866 463.781 184.827Z" fill="#ED9DA0"/>
<path d="M432.225 150.051C434.366 150.051 436.1 148.316 436.1 146.176C436.1 144.036 434.366 142.301 432.225 142.301C430.085 142.301 428.35 144.036 428.35 146.176C428.35 148.316 430.085 150.051 432.225 150.051Z" fill="#277DD1"/>
<path d="M11.4317 285.457C17.7453 285.457 22.8634 280.339 22.8634 274.025C22.8634 267.712 17.7453 262.593 11.4317 262.593C5.11815 262.593 0 267.712 0 274.025C0 280.339 5.11815 285.457 11.4317 285.457Z" fill="#090814"/>
<path d="M52.8711 307.964L47.1129 302.364L35.5503 305.955L36.6605 319.344L60.4346 318.24L53.1301 308.318L52.8711 307.964Z" fill="#ED9DA0"/>
<path d="M40.2775 307.848C50.4849 307.848 58.7596 299.574 58.7596 289.366C58.7596 279.159 50.4849 270.884 40.2775 270.884C30.0701 270.884 21.7954 279.159 21.7954 289.366C21.7954 299.574 30.0701 307.848 40.2775 307.848Z" fill="#ED9DA0"/>
<path d="M155.016 331.685C155.016 331.685 177.721 370.705 183.125 376.563C185.694 379.446 188.432 382.175 191.324 384.735C191.324 384.735 188.783 393.162 184.737 392.861C182.432 392.72 180.171 392.162 178.066 391.212C178.066 391.212 176.26 386.531 173.11 384.478C169.96 382.425 144.226 357.108 144.83 349.016C145.434 340.924 155.016 331.685 155.016 331.685Z" fill="#090814"/>
<path d="M74.1538 387.369C74.1538 387.369 98.3633 406.159 131.265 388.503L134.1 386.416C134.1 386.416 129.315 397.18 128.871 400.099C128.357 403.483 115.899 423.304 113.866 424.254C111.833 425.204 111.385 426.08 111.385 426.08L120.013 435.575L123.203 433.228C123.203 433.228 135.64 415.606 139.278 412.382C142.916 409.159 160.248 375.912 160.248 375.912C160.248 375.912 166.875 363.387 150.337 362.445C133.799 361.502 126.187 366.01 126.187 366.01L96.8359 370.673L74.1538 387.369Z" fill="#090814"/>
<path d="M191.604 382.889L203.85 391.359C203.85 391.359 219.471 396.254 209.849 399.511C200.226 402.768 174.867 403.946 174.289 399.452C173.71 394.958 175.289 387.884 176.554 388.272C177.819 388.659 186.603 390.941 191.604 382.889Z" fill="#2F2E41"/>
<path d="M124.286 430.318L126.552 442.764C126.552 442.764 132.997 455.088 125.259 451.264C117.522 447.44 101.58 432.914 103.934 429.869C106.288 426.824 111.483 423.521 112.011 424.513C112.539 425.506 116.444 432.149 124.286 430.318Z" fill="#2F2E41"/>
<path d="M100.936 374.762C100.936 374.762 84.4793 393.975 74.4882 389.308C64.4971 384.641 23.6206 330.578 28.2882 320.59C32.9558 310.602 34.5182 312.726 34.5182 312.726L55.6239 314.677L49.5514 304.941C50.4094 304.355 51.4578 304.115 52.4853 304.271C53.5128 304.427 54.443 304.967 55.0884 305.781C57.7904 308.71 68.6376 316.026 72.4162 326.358C76.1948 336.689 87.2912 336.176 87.2912 336.176L100.936 374.762Z" fill="#277DD1"/>
<path d="M167.394 335.141L138.867 365.423L113.312 320.304L137.606 290.952L167.394 335.141Z" fill="#3F3D56"/>
<path d="M165.241 334.815L139.476 361.425L116.128 320.419L137.54 293.462L165.241 334.815Z" fill="white"/>
<path d="M137.469 364.267L138.869 365.424L137.973 367.174L98.0824 379.047L97.7051 377.681L99.5202 375.804L137.469 364.267Z" fill="#B3B3B3"/>
<path d="M139.221 365.163L97.9138 378.078L72.7334 330.498L113.312 320.305L139.221 365.163Z" fill="#D0CDE1"/>
<path d="M136.111 358.71L134.339 360.014L114.669 325.863L116.699 324.913L136.111 358.71Z" fill="#3F3D56"/>
<path d="M132.045 360.609L114.571 365.819L94.7344 330.698L112.024 326.719L132.045 360.609Z" fill="#3F3D56"/>
<path d="M82.8185 334.551L86.4361 333.528C86.4361 333.528 106.612 331.246 106.906 337.588C107.2 343.929 83.7279 340.986 83.7279 340.986L80.5981 336.733L82.8185 334.551Z" fill="#ED9DA0"/>
<path d="M100.514 363.052L105.55 360.986C105.55 360.986 120.751 354.171 116.39 349.73C112.029 345.29 98.581 353.004 98.581 353.004L96.0063 355.445L100.514 363.052Z" fill="#ED9DA0"/>
<path d="M96.0266 353.242C96.0266 353.242 104.226 361.413 102.36 363.333C100.495 365.252 69.9006 390.498 62.3203 382.42C54.74 374.342 17.7863 333.784 32.1643 330.307C46.5423 326.829 50.3411 334.96 50.3411 334.96L69.3217 367.433L96.0266 353.242Z" fill="#277DD1"/>
<path d="M71.4761 328.419L84.9448 332.986L84.725 342.709L70.48 341.172L71.4761 328.419Z" fill="#277DD1"/>
<path opacity="0.2" d="M83.6149 358.278L69.1039 366.772L52.5244 341.273L68.5285 362.277L83.6149 358.278Z" fill="black"/>
<path d="M32.165 306.011C44.3166 306.011 54.1674 296.161 54.1674 284.009C54.1674 271.858 44.3166 262.007 32.165 262.007C20.0134 262.007 10.1626 271.858 10.1626 284.009C10.1626 296.161 20.0134 306.011 32.165 306.011Z" fill="#090814"/>
<path d="M151.047 337.062L135.641 314.522L142.172 306.438L158.18 329.624L151.047 337.062Z" fill="#277DD1"/>
<path d="M150.615 346.123L127.161 312.026L128.318 310.626L151.663 344.804L150.615 346.123Z" fill="#E6E6E6"/>
<path d="M147.593 349.441L124.139 315.343L125.296 313.943L148.641 348.122L147.593 349.441Z" fill="#E6E6E6"/>
<path d="M145.018 351.882L121.564 317.784L122.721 316.384L146.066 350.563L145.018 351.882Z" fill="#E6E6E6"/>
<path d="M41.9082 269.319H48.7143C52.1603 269.319 55.465 270.689 57.9014 273.126C60.3378 275.563 61.7065 278.868 61.7063 282.314H41.9082V269.319Z" fill="#090814"/>
<path d="M135.666 261.051L134.432 260.959C134.385 261.601 134.35 262.246 134.31 262.89L128.771 262.704L134.581 273.591L141.106 263.117L135.547 262.931C135.587 262.302 135.62 261.676 135.666 261.051Z" fill="#3F3D56"/>
<path d="M168.153 172.308L169.136 173.06C170.612 171.127 172.153 169.198 173.717 167.325L172.767 166.531C171.192 168.418 169.639 170.362 168.153 172.308Z" fill="#3F3D56"/>
<path d="M177.632 160.964L178.546 161.799C180.187 160 181.893 158.215 183.612 156.491L182.735 155.617C181.004 157.354 179.286 159.153 177.632 160.964Z" fill="#3F3D56"/>
<path d="M188.068 150.499L188.908 151.409C190.704 149.761 192.558 148.132 194.418 146.569L193.622 145.621C191.745 147.198 189.877 148.839 188.068 150.499Z" fill="#3F3D56"/>
<path d="M159.706 184.449L160.752 185.11C162.052 183.052 163.418 180.994 164.812 178.991L163.796 178.284C162.392 180.302 161.016 182.377 159.706 184.449Z" fill="#3F3D56"/>
<path d="M199.378 140.997L200.132 141.977C202.065 140.492 204.052 139.037 206.044 137.641L205.335 136.627C203.33 138.032 201.326 139.501 199.378 140.997Z" fill="#3F3D56"/>
<path d="M152.362 197.294L153.463 197.86C154.578 195.69 155.757 193.52 156.966 191.404L155.892 190.789C154.673 192.921 153.485 195.109 152.362 197.294Z" fill="#3F3D56"/>
<path d="M140.426 232.128L139.227 231.819C138.616 234.194 138.05 236.615 137.547 239.017L138.758 239.272C139.257 236.889 139.819 234.485 140.426 232.128Z" fill="#3F3D56"/>
<path d="M211.477 132.53L212.141 133.575C214.192 132.269 216.301 130.993 218.409 129.779L217.792 128.706C215.667 129.927 213.543 131.214 211.477 132.53Z" fill="#3F3D56"/>
<path d="M137.404 246.482L136.183 246.281C135.785 248.697 135.437 251.159 135.146 253.598L136.375 253.745C136.664 251.324 137.01 248.88 137.404 246.482Z" fill="#3F3D56"/>
<path d="M146.186 210.747L147.332 211.213C148.25 208.955 149.231 206.685 150.25 204.468L149.126 203.951C148.099 206.185 147.11 208.47 146.186 210.747Z" fill="#3F3D56"/>
<path d="M141.229 224.705L142.412 225.066C143.126 222.731 143.901 220.381 144.717 218.083L143.551 217.669C142.729 219.985 141.947 222.351 141.229 224.705Z" fill="#3F3D56"/>
<path d="M295.189 107.863C297.616 107.779 300.086 107.745 302.53 107.768L302.541 106.53C300.08 106.507 297.59 106.541 295.147 106.626L295.189 107.863Z" fill="#3F3D56"/>
<path d="M224.268 125.164L224.837 126.263C226.998 125.143 229.211 124.058 231.413 123.038L230.893 121.918C228.674 122.943 226.445 124.037 224.268 125.164Z" fill="#3F3D56"/>
<path d="M324.473 109.405C326.887 109.747 329.323 110.147 331.715 110.595L331.942 109.379C329.533 108.928 327.079 108.525 324.646 108.18L324.473 109.405Z" fill="#3F3D56"/>
<path d="M338.897 112.105C341.267 112.658 343.657 113.274 346.004 113.933L346.339 112.743C343.975 112.079 341.566 111.459 339.178 110.901L338.897 112.105Z" fill="#3F3D56"/>
<path d="M353.022 116.075C355.332 116.837 357.659 117.663 359.938 118.528L360.378 117.372C358.082 116.499 355.738 115.668 353.41 114.9L353.022 116.075Z" fill="#3F3D56"/>
<path d="M309.866 107.993C312.303 108.121 314.766 108.304 317.185 108.538L317.305 107.307C314.867 107.071 312.386 106.887 309.931 106.757L309.866 107.993Z" fill="#3F3D56"/>
<path d="M280.415 107.784L280.566 109.013C282.977 108.716 285.433 108.469 287.864 108.278L287.767 107.044C285.318 107.236 282.844 107.485 280.415 107.784Z" fill="#3F3D56"/>
<path d="M251.545 113.975L251.912 115.157C254.237 114.436 256.611 113.757 258.965 113.143L258.653 111.946C256.28 112.567 253.888 113.249 251.545 113.975Z" fill="#3F3D56"/>
<path d="M237.653 118.965L238.123 120.11C240.372 119.186 242.673 118.303 244.954 117.483L244.534 116.319C242.235 117.144 239.92 118.034 237.653 118.965Z" fill="#3F3D56"/>
<path d="M265.843 110.236L266.102 111.446C268.482 110.936 270.903 110.472 273.307 110.068L273.101 108.847C270.68 109.256 268.237 109.722 265.843 110.236Z" fill="#3F3D56"/>
<path d="M378.402 126.18L371.486 115.96L369.054 120.966C368.465 120.703 367.88 120.434 367.292 120.18L366.802 121.316C367.376 121.564 367.944 121.825 368.515 122.079L366.095 127.061L378.402 126.18Z" fill="#3F3D56"/>
</g>
<defs>
<clipPath id="clip0_3_328">
<rect width="560" height="452" fill="white"/>
</clipPath>
</defs>
</svg>
