<svg width="560" height="334" viewBox="0 0 560 334" fill="none" xmlns="http://www.w3.org/2000/svg">
<g clip-path="url(#clip0_3_253)">
<path d="M32.9969 256.231C16.5141 250.235 2.20596 235.891 0.390869 218.446C16.3921 228.827 35.5495 233.213 54.4736 230.829C61.7685 229.884 69.7837 228.072 76.0262 231.963C79.9105 234.384 82.3219 238.683 83.4282 243.125C84.5344 247.566 84.4845 252.203 84.428 256.779L84.9413 257.8C67.7232 261.143 49.4797 262.227 32.9969 256.231Z" fill="#F0F0F0"/>
<path d="M0.748457 218.359C9.14809 230.2 21.0652 239.093 34.807 243.776C37.7474 244.836 40.8366 245.427 43.9609 245.525C47.0074 245.523 49.9978 244.705 52.6212 243.156C55.0964 241.761 57.4666 240.048 60.2377 239.278C61.662 238.906 63.1491 238.839 64.6012 239.081C66.0534 239.323 67.4379 239.87 68.664 240.685C71.7719 242.636 73.9933 245.588 76.0653 248.55C78.3659 251.839 80.7035 255.291 84.2948 257.287C84.7299 257.529 84.3291 258.19 83.8947 257.949C77.6464 254.475 75.3328 247.107 70.0144 242.628C67.5327 240.538 64.4062 239.183 61.1265 239.859C58.2585 240.449 55.8128 242.214 53.3189 243.648C50.7818 245.197 47.9041 246.1 44.9373 246.28C41.8181 246.341 38.7113 245.871 35.7499 244.889C29.0476 242.786 22.7178 239.642 16.9923 235.572C10.432 230.963 4.7084 225.266 0.0691252 218.728C-0.217847 218.323 0.46336 217.956 0.748457 218.359Z" fill="white"/>
<path d="M30.2934 242.529C29.1947 244.727 27.3503 246.464 25.0893 247.429C22.8284 248.393 20.2982 248.523 17.9506 247.794C17.476 247.645 17.6855 246.901 18.1606 247.05C20.3454 247.733 22.7023 247.612 24.8058 246.709C26.9094 245.807 28.6211 244.182 29.632 242.128C29.8522 241.682 30.5123 242.085 30.2934 242.529Z" fill="white"/>
<path d="M51.4595 244.029C49.9117 239.248 46.619 235.227 42.2379 232.766C41.8036 232.523 42.2043 231.861 42.638 232.105C47.1924 234.674 50.6104 238.866 52.2101 243.844C52.3623 244.319 51.6108 244.501 51.4595 244.029Z" fill="white"/>
<path d="M11.3058 230.428C11.9082 229.665 12.3118 228.766 12.4804 227.809C12.6491 226.852 12.5774 225.868 12.2719 224.946C12.1138 224.474 12.8655 224.292 13.0225 224.761C13.3553 225.782 13.4331 226.868 13.2492 227.926C13.0652 228.983 12.6251 229.98 11.9672 230.828C11.9119 230.913 11.8263 230.974 11.7277 230.998C11.6291 231.022 11.525 231.008 11.4364 230.958C11.3491 230.905 11.2864 230.819 11.262 230.72C11.2375 230.621 11.2533 230.516 11.3058 230.428Z" fill="white"/>
<path d="M41.9912 176.066C42.0983 176.358 42.2054 176.65 42.3188 176.944C43.7791 180.865 45.5555 184.661 47.6304 188.294C47.7864 188.578 47.9487 188.863 48.1125 189.141C53.2049 197.841 59.8683 205.52 67.7638 211.788C70.9079 214.279 74.237 216.527 77.7223 218.513C82.5357 221.255 87.9728 223.846 91.4955 227.899C91.8677 228.318 92.2137 228.759 92.5314 229.221L86.1468 257.095C86.1005 257.151 86.0605 257.209 86.0141 257.265L85.8101 258.39C85.6232 258.3 85.4313 258.203 85.2444 258.113C85.1357 258.061 85.0285 258.003 84.9199 257.952C84.8479 257.915 84.776 257.878 84.7089 257.85C84.6849 257.838 84.661 257.825 84.6433 257.815C84.5763 257.786 84.5171 257.752 84.4564 257.725C83.3822 257.184 82.3098 256.635 81.2394 256.078C81.2331 256.076 81.2331 256.076 81.2281 256.069C73.0313 251.899 65.358 246.771 58.3692 240.793C58.1631 240.612 57.9505 240.429 57.7473 240.235C54.6731 237.504 51.8272 234.527 49.2382 231.332C47.8261 229.578 46.5037 227.754 45.2761 225.866C42.1135 220.983 39.7387 215.633 38.2387 210.011C35.2502 198.805 35.8789 186.767 41.5505 176.822C41.6957 176.567 41.8396 176.319 41.9912 176.066Z" fill="#F0F0F0"/>
<path d="M42.3306 176.21C41.9081 190.721 46.0688 204.997 54.2217 217.01C55.9309 219.627 58.042 221.958 60.4772 223.918C62.9111 225.75 65.7912 226.898 68.8184 227.24C71.6346 227.617 74.5588 227.676 77.2344 228.73C78.5959 229.29 79.8238 230.132 80.8373 231.199C81.8508 232.267 82.6272 233.537 83.1155 234.926C84.4221 238.355 84.4187 242.05 84.2899 245.662C84.1468 249.673 83.9346 253.837 85.6001 257.593C85.8019 258.048 85.0838 258.335 84.8824 257.88C81.9848 251.345 84.5735 244.069 83.0237 237.291C82.3006 234.128 80.6199 231.164 77.5947 229.728C74.9493 228.473 71.9339 228.41 69.0792 228.053C66.1212 227.762 63.2794 226.751 60.8022 225.109C58.2751 223.279 56.0777 221.033 54.3042 218.466C50.2192 212.752 47.0582 206.43 44.937 199.733C42.4736 192.104 41.3335 184.109 41.5659 176.095C41.5805 175.599 42.3451 175.717 42.3306 176.21Z" fill="white"/>
<path d="M51.3689 213.296C49.1678 214.391 46.6494 214.667 44.2634 214.076C41.8775 213.485 39.7793 212.065 38.3437 210.069C38.0546 209.664 38.6699 209.196 38.9594 209.601C40.2929 211.462 42.2474 212.785 44.4703 213.33C46.6933 213.876 49.0381 213.61 51.0817 212.579C51.526 212.355 51.8107 213.074 51.3689 213.296Z" fill="white"/>
<path d="M67.3654 227.238C69.0079 222.489 68.8 217.295 66.7834 212.693C66.5832 212.237 67.3012 211.95 67.5011 212.406C69.5907 217.199 69.796 222.604 68.076 227.542C67.9117 228.013 67.2021 227.706 67.3654 227.238Z" fill="white"/>
<path d="M43.4939 192.202C44.4337 191.957 45.2978 191.481 46.0085 190.819C46.7192 190.156 47.2542 189.328 47.5655 188.407C47.7237 187.935 48.4333 188.242 48.2761 188.712C47.9274 189.727 47.3354 190.641 46.5518 191.375C45.7682 192.108 44.8169 192.639 43.781 192.92C43.6856 192.955 43.5805 192.952 43.4872 192.912C43.3939 192.872 43.3193 192.798 43.2785 192.705C43.241 192.61 43.2426 192.504 43.2829 192.409C43.3232 192.315 43.399 192.241 43.4939 192.202Z" fill="white"/>
<path d="M531.885 255.655C547.506 247.678 559.942 231.685 559.599 214.149C544.995 226.418 526.523 233.126 507.449 233.086C500.093 233.044 491.916 232.231 486.199 236.861C482.642 239.741 480.777 244.304 480.225 248.847C479.673 253.391 480.293 257.986 480.911 262.521L480.527 263.598C498.026 264.798 516.264 263.632 531.885 255.655Z" fill="#F0F0F0"/>
<path d="M559.234 214.106C552.353 226.89 541.62 237.181 528.558 243.517C525.77 244.931 522.777 245.897 519.688 246.379C516.665 246.751 513.596 246.306 510.802 245.092C508.175 244.012 505.612 242.602 502.767 242.18C501.308 241.985 499.824 242.101 498.412 242.52C497.001 242.939 495.694 243.652 494.578 244.611C491.733 246.93 489.891 250.132 488.199 253.326C486.32 256.873 484.425 260.586 481.106 263.009C480.704 263.303 481.183 263.909 481.584 263.616C487.358 259.401 488.749 251.805 493.476 246.706C495.682 244.327 498.619 242.598 501.956 242.865C504.875 243.098 507.519 244.549 510.17 245.666C512.879 246.891 515.846 247.434 518.812 247.248C521.915 246.925 524.941 246.076 527.759 244.738C534.152 241.827 540.047 237.928 545.229 233.185C551.173 227.805 556.153 221.448 559.953 214.389C560.188 213.952 559.467 213.672 559.234 214.106Z" fill="white"/>
<path d="M532.884 241.724C534.245 243.772 536.289 245.269 538.651 245.948C541.013 246.627 543.54 246.445 545.78 245.433C546.233 245.227 545.934 244.514 545.48 244.72C543.396 245.666 541.042 245.836 538.844 245.199C536.645 244.562 534.747 243.16 533.491 241.246C533.218 240.83 532.612 241.311 532.884 241.724Z" fill="white"/>
<path d="M512.063 245.815C513.011 240.88 515.785 236.485 519.83 233.504C520.231 233.209 519.752 232.602 519.352 232.897C515.148 236.006 512.271 240.587 511.295 245.724C511.203 246.214 511.971 246.302 512.063 245.815Z" fill="white"/>
<path d="M550.24 227.381C549.548 226.699 549.037 225.855 548.752 224.927C548.467 223.998 548.417 223.013 548.607 222.06C548.706 221.572 547.938 221.484 547.84 221.969C547.635 223.023 547.691 224.11 548.004 225.137C548.316 226.164 548.875 227.099 549.633 227.86C549.698 227.937 549.79 227.987 549.891 227.999C549.992 228.011 550.094 227.984 550.175 227.924C550.255 227.86 550.307 227.768 550.319 227.666C550.331 227.564 550.303 227.462 550.24 227.381Z" fill="white"/>
<path d="M513.106 177.204C513.035 177.507 512.965 177.81 512.889 178.116C511.921 182.186 510.625 186.172 509.012 190.032C508.892 190.333 508.766 190.636 508.638 190.932C504.654 200.192 498.985 208.632 491.919 215.822C489.105 218.681 486.078 221.321 482.863 223.721C478.423 227.034 473.346 230.273 470.348 234.729C470.03 235.19 469.741 235.671 469.482 236.168L479.245 263.046C479.298 263.096 479.344 263.148 479.397 263.198L479.738 264.289C479.913 264.177 480.091 264.057 480.265 263.945C480.367 263.88 480.466 263.81 480.568 263.745C480.635 263.7 480.701 263.655 480.764 263.618C480.787 263.603 480.809 263.588 480.825 263.575C480.888 263.539 480.943 263.498 481 263.463C481.999 262.795 482.996 262.118 483.99 261.433C483.996 261.431 483.996 261.431 484 261.423C491.622 256.277 498.607 250.245 504.808 243.453C504.99 243.248 505.179 243.041 505.357 242.823C508.072 239.735 510.53 236.43 512.707 232.941C513.893 231.027 514.981 229.054 515.967 227.03C518.505 221.795 520.205 216.193 521.002 210.43C522.591 198.942 520.487 187.073 513.636 177.899C513.461 177.665 513.287 177.436 513.106 177.204Z" fill="#F0F0F0"/>
<path d="M512.786 177.388C514.989 191.738 512.615 206.417 506.001 219.34C504.626 222.148 502.818 224.721 500.642 226.965C498.451 229.083 495.734 230.575 492.772 231.288C490.024 232.007 487.129 232.425 484.603 233.8C483.321 234.524 482.206 235.51 481.331 236.694C480.456 237.878 479.842 239.234 479.528 240.673C478.653 244.236 479.11 247.902 479.682 251.471C480.317 255.434 481.04 259.54 479.849 263.473C479.704 263.95 480.452 264.146 480.596 263.67C482.668 256.828 479.205 249.925 479.91 243.008C480.239 239.78 481.542 236.632 484.368 234.835C486.839 233.264 489.824 232.831 492.613 232.126C495.513 231.474 498.209 230.121 500.465 228.187C502.749 226.06 504.653 223.561 506.098 220.796C509.449 214.622 511.809 207.96 513.091 201.054C514.598 193.179 514.747 185.105 513.531 177.181C513.456 176.69 512.711 176.901 512.786 177.388Z" fill="white"/>
<path d="M508.375 215.304C510.694 216.12 513.227 216.084 515.523 215.204C517.818 214.324 519.726 212.657 520.905 210.501C521.142 210.063 520.474 209.674 520.236 210.112C519.142 212.122 517.365 213.675 515.226 214.49C513.087 215.305 510.727 215.329 508.572 214.557C508.104 214.39 507.909 215.138 508.375 215.304Z" fill="white"/>
<path d="M494.214 231.106C492 226.595 491.568 221.416 493.003 216.6C493.146 216.123 492.398 215.927 492.256 216.403C490.771 221.417 491.232 226.807 493.546 231.496C493.767 231.943 494.433 231.551 494.214 231.106Z" fill="white"/>
<path d="M513.598 193.402C512.635 193.274 511.719 192.908 510.932 192.338C510.145 191.768 509.512 191.012 509.09 190.137C508.875 189.687 508.209 190.08 508.423 190.526C508.893 191.491 509.593 192.325 510.461 192.957C511.329 193.589 512.338 193.998 513.401 194.15C513.5 194.173 513.604 194.157 513.691 194.106C513.779 194.055 513.844 193.972 513.873 193.875C513.899 193.776 513.884 193.67 513.832 193.582C513.781 193.494 513.696 193.429 513.598 193.402Z" fill="white"/>
<path d="M487.8 11.4807H377.746V18.5606C377.744 18.9231 377.869 19.2749 378.098 19.5556C377.876 25.0894 377.746 32.1539 377.746 39.8307V229.111C377.746 246.853 378.458 261.288 379.33 261.288H486.216C487.088 261.288 487.8 246.853 487.8 229.111V39.8307C487.8 32.1539 487.67 25.0894 487.448 19.5556C487.677 19.2749 487.802 18.923 487.8 18.5606L487.8 11.4807Z" fill="white"/>
<path d="M486.215 262.054H379.33C378.497 262.054 377.947 262.054 377.446 251.891C377.146 245.792 376.98 237.702 376.98 229.111V39.8309C376.98 32.4113 377.105 25.1999 377.333 19.5249C377.475 16.1177 377.638 13.3884 377.818 11.4117C378.169 7.54219 378.504 6.88855 379.33 6.88855H486.215C487.041 6.88855 487.376 7.54219 487.728 11.4117C487.907 13.3958 488.07 16.1252 488.212 19.5234L488.212 19.5249C488.44 25.194 488.565 32.4054 488.565 39.8309V229.111C488.565 237.702 488.4 245.792 488.099 251.891C487.599 262.054 487.048 262.054 486.215 262.054ZM379.765 260.523H485.781C486.334 258.431 487.034 247.075 487.034 229.111V39.8309C487.034 32.4255 486.909 25.2366 486.683 19.5877C486.542 16.2137 486.38 13.5095 486.203 11.55C486.135 10.4975 485.991 9.4513 485.773 8.41933H379.772C379.554 9.4513 379.411 10.4975 379.342 11.55C379.165 13.502 379.004 16.2063 378.862 19.5877C378.636 25.2414 378.511 32.4311 378.511 39.8309V229.111C378.511 247.074 379.211 258.431 379.765 260.523Z" fill="#E4E4E4"/>
<path d="M486.216 7.65381H379.33C378.91 7.65462 378.508 7.82179 378.211 8.11873C377.914 8.41568 377.746 8.8182 377.746 9.23817V18.5606C377.744 18.9231 377.869 19.2749 378.098 19.5556C378.247 19.7391 378.435 19.8872 378.648 19.9892C378.861 20.0911 379.094 20.1443 379.33 20.1449H486.216C486.452 20.1443 486.685 20.091 486.898 19.9891C487.111 19.8872 487.299 19.7391 487.448 19.5556C487.677 19.2749 487.802 18.9231 487.8 18.5606V9.23817C487.799 8.81823 487.632 8.41572 487.335 8.11877C487.038 7.82182 486.636 7.65463 486.216 7.65381Z" fill="#CACACA"/>
<path d="M386.945 15.6942C388.188 15.6942 389.195 14.6869 389.195 13.4443C389.195 12.2017 388.188 11.1943 386.945 11.1943C385.703 11.1943 384.695 12.2017 384.695 13.4443C384.695 14.6869 385.703 15.6942 386.945 15.6942Z" fill="white"/>
<path d="M395.485 15.6942C396.728 15.6942 397.735 14.6869 397.735 13.4443C397.735 12.2017 396.728 11.1943 395.485 11.1943C394.243 11.1943 393.235 12.2017 393.235 13.4443C393.235 14.6869 394.243 15.6942 395.485 15.6942Z" fill="white"/>
<path d="M404.026 15.6942C405.268 15.6942 406.276 14.6869 406.276 13.4443C406.276 12.2017 405.268 11.1943 404.026 11.1943C402.783 11.1943 401.776 12.2017 401.776 13.4443C401.776 14.6869 402.783 15.6942 404.026 15.6942Z" fill="white"/>
<path d="M477.85 10.4398H468.015C467.822 10.4411 467.638 10.5181 467.502 10.6542C467.366 10.7903 467.289 10.9745 467.288 11.1669C467.285 11.2765 467.311 11.3849 467.364 11.4807C467.423 11.604 467.515 11.7082 467.63 11.7814C467.745 11.8545 467.878 11.8936 468.015 11.8941H477.85C477.988 11.8947 478.123 11.8562 478.239 11.783C478.356 11.7099 478.449 11.605 478.508 11.4807C478.555 11.3829 478.579 11.2755 478.577 11.1669C478.577 11.0714 478.558 10.9768 478.522 10.8886C478.485 10.8003 478.432 10.7202 478.364 10.6526C478.297 10.5851 478.217 10.5316 478.128 10.495C478.04 10.4585 477.945 10.4398 477.85 10.4398Z" fill="white"/>
<path d="M477.85 13.1722H468.015C467.822 13.1722 467.637 13.2488 467.501 13.3852C467.364 13.5216 467.288 13.7065 467.288 13.8994C467.288 14.0922 467.364 14.2771 467.501 14.4135C467.637 14.5499 467.822 14.6265 468.015 14.6265H477.85C478.043 14.6265 478.228 14.5499 478.364 14.4135C478.5 14.2771 478.577 14.0922 478.577 13.8994C478.577 13.7065 478.5 13.5216 478.364 13.3852C478.228 13.2488 478.043 13.1722 477.85 13.1722Z" fill="white"/>
<path d="M477.85 15.9047H468.015C467.822 15.9047 467.637 15.9813 467.501 16.1176C467.364 16.254 467.288 16.4389 467.288 16.6318C467.288 16.8246 467.364 17.0096 467.501 17.1459C467.637 17.2823 467.822 17.3589 468.015 17.3589H477.85C478.043 17.3589 478.228 17.2823 478.364 17.1459C478.5 17.0096 478.577 16.8246 478.577 16.6318C478.577 16.4389 478.5 16.254 478.364 16.1176C478.228 15.9813 478.043 15.9047 477.85 15.9047Z" fill="white"/>
<path d="M443.408 40.5808H423.171C422.156 40.5812 421.183 40.9845 420.466 41.7021C419.748 42.4198 419.345 43.3929 419.344 44.4078V61.9352C419.346 62.9496 419.75 63.922 420.467 64.6393C421.184 65.3567 422.157 65.7604 423.171 65.7621H443.408C444.422 65.7591 445.393 65.355 446.111 64.6379C446.828 63.9209 447.232 62.9492 447.235 61.9352V44.4078C447.233 43.3933 446.829 42.4209 446.112 41.7035C445.395 40.9862 444.422 40.5825 443.408 40.5808Z" fill="#277DD1"/>
<path d="M468.55 77.2123H398.021C397.56 77.2123 397.118 77.3953 396.792 77.7212C396.466 78.047 396.283 78.4889 396.283 78.9497C396.283 79.4105 396.466 79.8524 396.792 80.1783C397.118 80.5041 397.56 80.6871 398.021 80.6871H468.55C469.011 80.6871 469.453 80.5041 469.779 80.1783C470.105 79.8524 470.288 79.4105 470.288 78.9497C470.288 78.4889 470.105 78.047 469.779 77.7212C469.453 77.3953 469.011 77.2123 468.55 77.2123Z" fill="#E4E4E4"/>
<path d="M424.809 85.3561H398.021C397.56 85.3561 397.118 85.5391 396.792 85.865C396.466 86.1908 396.283 86.6327 396.283 87.0935C396.283 87.5543 396.466 87.9962 396.792 88.3221C397.118 88.6479 397.56 88.8309 398.021 88.8309H424.809C425.27 88.8309 425.712 88.6479 426.038 88.3221C426.363 87.9962 426.546 87.5543 426.546 87.0935C426.546 86.6327 426.363 86.1908 426.038 85.865C425.712 85.5391 425.27 85.3561 424.809 85.3561Z" fill="#E4E4E4"/>
<path d="M443.408 116.354H423.171C422.156 116.355 421.183 116.758 420.466 117.476C419.748 118.193 419.345 119.166 419.344 120.181V137.709C419.346 138.723 419.75 139.695 420.467 140.413C421.184 141.13 422.157 141.534 423.171 141.536H443.408C444.422 141.533 445.393 141.128 446.111 140.411C446.828 139.694 447.232 138.723 447.235 137.709V120.181C447.233 119.167 446.829 118.194 446.112 117.477C445.395 116.76 444.422 116.356 443.408 116.354Z" fill="#277DD1"/>
<path d="M468.55 152.986H398.021C397.56 152.986 397.118 153.169 396.792 153.495C396.466 153.82 396.283 154.262 396.283 154.723C396.283 155.184 396.466 155.626 396.792 155.952C397.118 156.278 397.56 156.461 398.021 156.461H468.55C469.011 156.461 469.453 156.278 469.779 155.952C470.105 155.626 470.288 155.184 470.288 154.723C470.288 154.262 470.105 153.82 469.779 153.495C469.453 153.169 469.011 152.986 468.55 152.986Z" fill="#E4E4E4"/>
<path d="M424.809 161.129H398.021C397.56 161.129 397.118 161.312 396.792 161.638C396.466 161.964 396.283 162.406 396.283 162.867C396.283 163.328 396.466 163.77 396.792 164.095C397.118 164.421 397.56 164.604 398.021 164.604H424.809C425.27 164.604 425.712 164.421 426.038 164.095C426.363 163.77 426.546 163.328 426.546 162.867C426.546 162.406 426.363 161.964 426.038 161.638C425.712 161.312 425.27 161.129 424.809 161.129Z" fill="#E4E4E4"/>
<path d="M443.408 192.128H423.171C422.156 192.128 421.183 192.531 420.466 193.249C419.748 193.967 419.345 194.94 419.344 195.955V213.482C419.346 214.496 419.75 215.469 420.467 216.186C421.184 216.904 422.157 217.307 423.171 217.309H443.408C444.422 217.306 445.393 216.902 446.111 216.185C446.828 215.468 447.232 214.496 447.235 213.482V195.955C447.233 194.94 446.829 193.968 446.112 193.25C445.395 192.533 444.422 192.129 443.408 192.128Z" fill="#277DD1"/>
<path d="M468.55 228.759H398.021C397.56 228.759 397.118 228.942 396.792 229.268C396.466 229.594 396.283 230.036 396.283 230.497C396.283 230.957 396.466 231.399 396.792 231.725C397.118 232.051 397.56 232.234 398.021 232.234H468.55C469.011 232.234 469.453 232.051 469.779 231.725C470.105 231.399 470.288 230.957 470.288 230.497C470.288 230.036 470.105 229.594 469.779 229.268C469.453 228.942 469.011 228.759 468.55 228.759Z" fill="#E4E4E4"/>
<path d="M424.809 236.903H398.021C397.56 236.903 397.118 237.086 396.792 237.412C396.466 237.738 396.283 238.18 396.283 238.64C396.283 239.101 396.466 239.543 396.792 239.869C397.118 240.195 397.56 240.378 398.021 240.378H424.809C425.27 240.378 425.712 240.195 426.038 239.869C426.363 239.543 426.546 239.101 426.546 238.64C426.546 238.18 426.363 237.738 426.038 237.412C425.712 237.086 425.27 236.903 424.809 236.903Z" fill="#E4E4E4"/>
<path d="M347.735 2.34962C347.734 1.92969 347.567 1.52718 347.27 1.23023C346.973 0.933282 346.571 0.766084 346.151 0.765259H63.2277C62.8077 0.76607 62.4052 0.933243 62.1082 1.23018C61.8112 1.52713 61.644 1.92965 61.6431 2.34962V11.672C61.6417 12.0602 61.7866 12.4346 62.0489 12.7206C61.7963 19.0504 61.6431 27.3931 61.6431 36.5319V246.945C61.6431 266.676 62.355 282.719 63.2277 282.719H346.151C347.023 282.719 347.735 266.676 347.735 246.945V36.5319C347.735 27.3931 347.582 19.0504 347.329 12.7206C347.592 12.4345 347.736 12.0601 347.735 11.672V2.34962Z" fill="white"/>
<path d="M346.151 283.484H63.2279C62.363 283.484 61.8409 283.484 61.3437 272.265C61.0433 265.488 60.8779 256.496 60.8779 246.945V36.532C60.8779 27.7244 61.0223 19.2573 61.2844 12.6902C61.7876 1.0219e-05 62.3606 0 63.2279 0H346.151C347.018 0 347.591 0.00225257 348.094 12.6902C348.356 19.2513 348.501 27.7184 348.501 36.532V246.945C348.501 256.496 348.335 265.488 348.035 272.265C347.538 283.484 347.016 283.484 346.151 283.484ZM63.6747 281.954H345.704C346.33 279.554 346.97 266.079 346.97 246.945V36.532C346.97 27.7382 346.826 19.2924 346.565 12.7515C346.246 4.71229 345.874 2.26552 345.696 1.53078H63.683C63.505 2.26555 63.1328 4.71193 62.8139 12.7511C62.5526 19.2988 62.4087 27.7442 62.4087 36.532V246.945C62.4087 266.079 63.0483 279.554 63.6747 281.954Z" fill="#E4E4E4"/>
<path d="M346.151 0.765259H63.2277C62.8077 0.76607 62.4052 0.933243 62.1082 1.23018C61.8112 1.52713 61.644 1.92965 61.6431 2.34962V11.672C61.6417 12.0602 61.7866 12.4346 62.0489 12.7206C62.196 12.8886 62.3772 13.0233 62.5805 13.1157C62.7837 13.2081 63.0044 13.256 63.2276 13.2564H346.151C346.374 13.256 346.595 13.2081 346.798 13.1157C347.001 13.0233 347.182 12.8886 347.329 12.7206C347.592 12.4345 347.736 12.0601 347.735 11.672V2.34962C347.734 1.9297 347.567 1.5272 347.27 1.23025C346.973 0.933307 346.571 0.7661 346.151 0.765259Z" fill="#CACACA"/>
<path d="M70.8427 8.80581C72.0853 8.80581 73.0926 7.79847 73.0926 6.55586C73.0926 5.31324 72.0853 4.30591 70.8427 4.30591C69.6001 4.30591 68.5928 5.31324 68.5928 6.55586C68.5928 7.79847 69.6001 8.80581 70.8427 8.80581Z" fill="white"/>
<path d="M79.3827 8.80581C80.6253 8.80581 81.6327 7.79847 81.6327 6.55586C81.6327 5.31324 80.6253 4.30591 79.3827 4.30591C78.1401 4.30591 77.1328 5.31324 77.1328 6.55586C77.1328 7.79847 78.1401 8.80581 79.3827 8.80581Z" fill="white"/>
<path d="M87.9233 8.80581C89.1659 8.80581 90.1732 7.79847 90.1732 6.55586C90.1732 5.31324 89.1659 4.30591 87.9233 4.30591C86.6807 4.30591 85.6733 5.31324 85.6733 6.55586C85.6733 7.79847 86.6807 8.80581 87.9233 8.80581Z" fill="white"/>
<path d="M337.785 3.55139H327.95C327.757 3.55139 327.572 3.628 327.436 3.76436C327.299 3.90072 327.223 4.08566 327.223 4.27851C327.223 4.47135 327.299 4.6563 327.436 4.79266C327.572 4.92902 327.757 5.00564 327.95 5.00564H337.785C337.978 5.00564 338.163 4.92902 338.299 4.79266C338.436 4.6563 338.512 4.47135 338.512 4.27851C338.512 4.08566 338.436 3.90072 338.299 3.76436C338.163 3.628 337.978 3.55139 337.785 3.55139Z" fill="white"/>
<path d="M337.785 6.28381H327.95C327.757 6.28381 327.572 6.36042 327.436 6.49678C327.299 6.63314 327.223 6.81809 327.223 7.01093C327.223 7.20377 327.299 7.38872 327.436 7.52508C327.572 7.66144 327.757 7.73805 327.95 7.73805H337.785C337.978 7.73805 338.163 7.66144 338.299 7.52508C338.436 7.38872 338.512 7.20377 338.512 7.01093C338.512 6.81809 338.436 6.63314 338.299 6.49678C338.163 6.36042 337.978 6.28381 337.785 6.28381Z" fill="white"/>
<path d="M337.785 9.01624H327.95C327.757 9.01624 327.572 9.09285 327.436 9.22921C327.299 9.36557 327.223 9.55051 327.223 9.74335C327.223 9.9362 327.299 10.1211 327.436 10.2575C327.572 10.3939 327.757 10.4705 327.95 10.4705H337.785C337.978 10.4705 338.163 10.3939 338.299 10.2575C338.436 10.1211 338.512 9.9362 338.512 9.74335C338.512 9.55051 338.436 9.36557 338.299 9.22921C338.163 9.09285 337.978 9.01624 337.785 9.01624Z" fill="white"/>
<path d="M154.675 47.4694H121.565C119.905 47.4714 118.314 48.1317 117.14 49.3054C115.966 50.4791 115.306 52.0704 115.304 53.7303V82.4093C115.306 84.0692 115.966 85.6605 117.14 86.8342C118.314 88.0079 119.905 88.6682 121.565 88.6702H154.675C156.335 88.6682 157.926 88.0079 159.1 86.8342C160.274 85.6605 160.934 84.0692 160.936 82.4093V53.7303C160.934 52.0704 160.274 50.4791 159.1 49.3054C157.926 48.1317 156.335 47.4714 154.675 47.4694Z" fill="#277DD1"/>
<path d="M291.242 58.5598H175.838C175.084 58.5598 174.361 58.8594 173.827 59.3926C173.294 59.9259 172.995 60.6491 172.995 61.4032C172.995 62.1573 173.294 62.8806 173.827 63.4138C174.361 63.9471 175.084 64.2466 175.838 64.2466H291.242C291.996 64.2466 292.719 63.9471 293.253 63.4138C293.786 62.8806 294.085 62.1573 294.085 61.4032C294.085 60.6491 293.786 59.9259 293.253 59.3926C292.719 58.8594 291.996 58.5598 291.242 58.5598Z" fill="#E4E4E4"/>
<path d="M219.671 71.8851H175.838C175.084 71.8851 174.361 72.1847 173.827 72.718C173.294 73.2512 172.995 73.9744 172.995 74.7285C172.995 75.4827 173.294 76.2059 173.827 76.7391C174.361 77.2724 175.084 77.572 175.838 77.572H219.671C220.426 77.572 221.149 77.2724 221.682 76.7391C222.215 76.2059 222.515 75.4827 222.515 74.7285C222.515 73.9744 222.215 73.2512 221.682 72.718C221.149 72.1847 220.426 71.8851 219.671 71.8851Z" fill="#E4E4E4"/>
<path d="M154.675 124.008H121.565C119.905 124.01 118.314 124.671 117.14 125.844C115.966 127.018 115.306 128.609 115.304 130.269V158.948C115.306 160.608 115.966 162.199 117.14 163.373C118.314 164.547 119.905 165.207 121.565 165.209H154.675C156.335 165.207 157.926 164.547 159.1 163.373C160.274 162.199 160.934 160.608 160.936 158.948V130.269C160.934 128.609 160.274 127.018 159.1 125.844C157.926 124.671 156.335 124.01 154.675 124.008Z" fill="#277DD1"/>
<path d="M291.242 135.099H175.838C175.084 135.099 174.361 135.398 173.827 135.931C173.294 136.465 172.995 137.188 172.995 137.942C172.995 138.696 173.294 139.419 173.827 139.953C174.361 140.486 175.084 140.785 175.838 140.785H291.242C291.996 140.785 292.719 140.486 293.253 139.953C293.786 139.419 294.085 138.696 294.085 137.942C294.085 137.188 293.786 136.465 293.253 135.931C292.719 135.398 291.996 135.099 291.242 135.099Z" fill="#E4E4E4"/>
<path d="M219.671 148.424H175.838C175.084 148.424 174.361 148.724 173.827 149.257C173.294 149.79 172.995 150.513 172.995 151.267C172.995 152.021 173.294 152.745 173.827 153.278C174.361 153.811 175.084 154.111 175.838 154.111H219.671C220.426 154.111 221.149 153.811 221.682 153.278C222.215 152.745 222.515 152.021 222.515 151.267C222.515 150.513 222.215 149.79 221.682 149.257C221.149 148.724 220.426 148.424 219.671 148.424Z" fill="#E4E4E4"/>
<path d="M154.675 200.547H121.565C119.905 200.549 118.314 201.209 117.14 202.383C115.966 203.557 115.306 205.148 115.304 206.808V235.487C115.306 237.147 115.966 238.738 117.14 239.912C118.314 241.086 119.905 241.746 121.565 241.748H154.675C156.335 241.746 157.926 241.086 159.1 239.912C160.274 238.738 160.934 237.147 160.936 235.487V206.808C160.934 205.148 160.274 203.557 159.1 202.383C157.926 201.209 156.335 200.549 154.675 200.547Z" fill="#277DD1"/>
<path d="M291.242 211.637H175.838C175.084 211.637 174.361 211.937 173.827 212.47C173.294 213.004 172.995 213.727 172.995 214.481C172.995 215.235 173.294 215.958 173.827 216.491C174.361 217.025 175.084 217.324 175.838 217.324H291.242C291.996 217.324 292.719 217.025 293.253 216.491C293.786 215.958 294.085 215.235 294.085 214.481C294.085 213.727 293.786 213.004 293.253 212.47C292.719 211.937 291.996 211.637 291.242 211.637Z" fill="#E4E4E4"/>
<path d="M219.671 224.963H175.838C175.084 224.963 174.361 225.262 173.827 225.796C173.294 226.329 172.995 227.052 172.995 227.806C172.995 228.56 173.294 229.284 173.827 229.817C174.361 230.35 175.084 230.65 175.838 230.65H219.671C220.426 230.65 221.149 230.35 221.682 229.817C222.215 229.284 222.515 228.56 222.515 227.806C222.515 227.052 222.215 226.329 221.682 225.796C221.149 225.262 220.426 224.963 219.671 224.963Z" fill="#E4E4E4"/>
<path d="M396.668 333.235H207.122C206.248 333.235 205.538 319.802 205.538 303.29V127.148C205.538 110.636 206.248 97.2037 207.122 97.2037H396.668C397.542 97.2037 398.253 110.636 398.253 127.148V303.29C398.253 319.802 397.542 333.235 396.668 333.235Z" fill="white"/>
<path d="M396.668 334H207.123C206.321 334 205.741 334 205.238 324.495C204.938 318.82 204.772 311.289 204.772 303.29V127.148C204.772 119.149 204.938 111.618 205.238 105.943C205.741 96.4381 206.321 96.4381 207.123 96.4381H396.668C397.47 96.4381 398.05 96.4381 398.553 105.943C398.853 111.618 399.019 119.149 399.019 127.148V303.29C399.019 311.289 398.853 318.82 398.553 324.495C398.05 334 397.47 334 396.668 334ZM207.546 332.469H396.245C396.794 330.486 397.488 319.921 397.488 303.29V127.148C397.488 110.517 396.794 99.9519 396.245 97.9689H207.546C206.997 99.9519 206.303 110.517 206.303 127.148V303.29C206.303 319.921 206.997 330.486 207.546 332.469Z" fill="#E4E4E4"/>
<path d="M396.668 109.695H207.122C206.702 109.695 206.299 109.528 206.002 109.23C205.705 108.933 205.538 108.531 205.538 108.11V98.7885C205.538 98.3683 205.705 97.9655 206.002 97.6684C206.299 97.3713 206.702 97.2042 207.122 97.2037H396.668C397.088 97.2042 397.491 97.3713 397.788 97.6684C398.085 97.9655 398.252 98.3683 398.253 98.7885V108.11C398.252 108.531 398.085 108.933 397.788 109.23C397.491 109.528 397.088 109.695 396.668 109.695Z" fill="#CACACA"/>
<path d="M214.735 105.245C215.977 105.245 216.985 104.237 216.985 102.995C216.985 101.752 215.977 100.745 214.735 100.745C213.492 100.745 212.485 101.752 212.485 102.995C212.485 104.237 213.492 105.245 214.735 105.245Z" fill="white"/>
<path d="M223.275 105.245C224.517 105.245 225.525 104.237 225.525 102.995C225.525 101.752 224.517 100.745 223.275 100.745C222.032 100.745 221.025 101.752 221.025 102.995C221.025 104.237 222.032 105.245 223.275 105.245Z" fill="white"/>
<path d="M231.815 105.245C233.057 105.245 234.065 104.237 234.065 102.995C234.065 101.752 233.057 100.745 231.815 100.745C230.572 100.745 229.565 101.752 229.565 102.995C229.565 104.237 230.572 105.245 231.815 105.245Z" fill="white"/>
<path d="M388.301 101.446H378.467C378.274 101.446 378.088 101.369 377.952 101.233C377.815 101.096 377.738 100.911 377.738 100.718C377.738 100.525 377.815 100.339 377.952 100.203C378.088 100.066 378.274 99.9893 378.467 99.9893H388.301C388.494 99.9899 388.678 100.067 388.814 100.203C388.951 100.34 389.027 100.525 389.027 100.718C389.027 100.911 388.951 101.095 388.814 101.232C388.678 101.369 388.494 101.446 388.301 101.446Z" fill="white"/>
<path d="M388.301 104.178H378.467C378.274 104.178 378.088 104.101 377.952 103.965C377.815 103.828 377.738 103.643 377.738 103.449C377.738 103.256 377.815 103.071 377.952 102.934C378.088 102.798 378.274 102.721 378.467 102.721H388.301C388.494 102.721 388.679 102.798 388.816 102.934C388.953 103.071 389.029 103.256 389.029 103.449C389.029 103.643 388.953 103.828 388.816 103.965C388.679 104.101 388.494 104.178 388.301 104.178Z" fill="white"/>
<path d="M388.301 106.91H378.467C378.274 106.91 378.088 106.833 377.952 106.696C377.815 106.56 377.738 106.374 377.738 106.181C377.738 105.988 377.815 105.803 377.952 105.666C378.088 105.529 378.274 105.453 378.467 105.453H388.301C388.494 105.453 388.678 105.53 388.814 105.667C388.951 105.803 389.027 105.988 389.027 106.181C389.027 106.374 388.951 106.559 388.814 106.695C388.678 106.832 388.494 106.909 388.301 106.91Z" fill="white"/>
<path d="M265.368 167.556H241.187C239.975 167.555 238.812 167.072 237.955 166.215C237.098 165.358 236.616 164.196 236.614 162.983V142.04C236.616 140.827 237.098 139.665 237.955 138.808C238.812 137.951 239.975 137.468 241.187 137.467H265.368C266.58 137.468 267.743 137.951 268.6 138.808C269.457 139.665 269.939 140.827 269.941 142.04V162.983C269.939 164.196 269.457 165.358 268.6 166.215C267.743 167.072 266.58 167.555 265.368 167.556Z" fill="#277DD1"/>
<path d="M365.101 149.722H280.824C280.274 149.722 279.745 149.503 279.356 149.114C278.967 148.725 278.748 148.197 278.748 147.646C278.748 147.095 278.967 146.567 279.356 146.178C279.745 145.789 280.274 145.57 280.824 145.57H365.101C365.651 145.57 366.179 145.789 366.569 146.178C366.958 146.567 367.177 147.095 367.177 147.646C367.177 148.197 366.958 148.725 366.569 149.114C366.179 149.503 365.651 149.722 365.101 149.722Z" fill="#E4E4E4"/>
<path d="M312.834 159.453H280.824C280.274 159.453 279.745 159.234 279.356 158.845C278.967 158.456 278.748 157.928 278.748 157.377C278.748 156.827 278.967 156.298 279.356 155.909C279.745 155.52 280.274 155.301 280.824 155.301H312.834C313.107 155.301 313.377 155.354 313.629 155.458C313.882 155.562 314.111 155.715 314.304 155.908C314.497 156.101 314.651 156.33 314.755 156.582C314.86 156.834 314.914 157.104 314.914 157.377C314.914 157.65 314.86 157.92 314.755 158.173C314.651 158.425 314.497 158.654 314.304 158.847C314.111 159.039 313.882 159.192 313.629 159.296C313.377 159.4 313.107 159.454 312.834 159.453Z" fill="#E4E4E4"/>
<path d="M265.368 229.553H241.187C239.975 229.551 238.812 229.069 237.955 228.212C237.098 227.354 236.616 226.192 236.614 224.98V204.036C236.616 202.824 237.098 201.662 237.955 200.804C238.812 199.947 239.975 199.465 241.187 199.463H265.368C266.58 199.465 267.743 199.947 268.6 200.804C269.457 201.662 269.939 202.824 269.941 204.036V224.98C269.939 226.192 269.457 227.354 268.6 228.212C267.743 229.069 266.58 229.551 265.368 229.553Z" fill="#277DD1"/>
<path d="M365.101 211.718H280.824C280.274 211.718 279.745 211.5 279.356 211.11C278.967 210.721 278.748 210.193 278.748 209.642C278.748 209.092 278.967 208.564 279.356 208.174C279.745 207.785 280.274 207.566 280.824 207.566H365.101C365.651 207.566 366.179 207.785 366.569 208.174C366.958 208.564 367.177 209.092 367.177 209.642C367.177 210.193 366.958 210.721 366.569 211.11C366.179 211.5 365.651 211.718 365.101 211.718Z" fill="#E4E4E4"/>
<path d="M312.834 221.45H280.824C280.274 221.45 279.745 221.231 279.356 220.842C278.967 220.452 278.748 219.924 278.748 219.374C278.748 218.823 278.967 218.295 279.356 217.906C279.745 217.516 280.274 217.297 280.824 217.297H312.834C313.107 217.297 313.377 217.35 313.629 217.454C313.882 217.558 314.111 217.711 314.304 217.904C314.497 218.097 314.651 218.326 314.755 218.578C314.86 218.83 314.914 219.101 314.914 219.374C314.914 219.647 314.86 219.917 314.755 220.169C314.651 220.421 314.497 220.65 314.304 220.843C314.111 221.036 313.882 221.189 313.629 221.293C313.377 221.397 313.107 221.45 312.834 221.45Z" fill="#E4E4E4"/>
<path d="M265.368 291.549H241.187C239.975 291.548 238.812 291.065 237.955 290.208C237.098 289.351 236.616 288.188 236.614 286.976V266.033C236.616 264.82 237.098 263.658 237.955 262.801C238.812 261.943 239.975 261.461 241.187 261.46H265.368C266.58 261.461 267.743 261.943 268.6 262.801C269.457 263.658 269.939 264.82 269.941 266.033V286.976C269.939 288.188 269.457 289.351 268.6 290.208C267.743 291.065 266.58 291.548 265.368 291.549Z" fill="#277DD1"/>
<path d="M365.101 273.715H280.824C280.274 273.715 279.745 273.496 279.356 273.107C278.967 272.718 278.748 272.189 278.748 271.639C278.748 271.088 278.967 270.56 279.356 270.171C279.745 269.781 280.274 269.563 280.824 269.563H365.101C365.651 269.563 366.179 269.781 366.569 270.171C366.958 270.56 367.177 271.088 367.177 271.639C367.177 272.189 366.958 272.718 366.569 273.107C366.179 273.496 365.651 273.715 365.101 273.715Z" fill="#E4E4E4"/>
<path d="M312.834 283.446H280.824C280.274 283.446 279.745 283.227 279.356 282.838C278.967 282.449 278.748 281.921 278.748 281.37C278.748 280.819 278.967 280.291 279.356 279.902C279.745 279.513 280.274 279.294 280.824 279.294H312.834C313.107 279.293 313.377 279.347 313.629 279.451C313.882 279.555 314.111 279.708 314.304 279.901C314.497 280.093 314.651 280.322 314.755 280.575C314.86 280.827 314.914 281.097 314.914 281.37C314.914 281.643 314.86 281.913 314.755 282.165C314.651 282.418 314.497 282.647 314.304 282.839C314.111 283.032 313.882 283.185 313.629 283.289C313.377 283.393 313.107 283.447 312.834 283.446Z" fill="#E4E4E4"/>
</g>
<defs>
<clipPath id="clip0_3_253">
<rect width="560" height="334" fill="white"/>
</clipPath>
</defs>
</svg>
