<svg width="1093" height="652" viewBox="0 0 1093 652" fill="none" xmlns="http://www.w3.org/2000/svg">
<g clip-path="url(#clip0_4_387)">
<path d="M64.4026 500.187C32.2318 488.482 4.30535 460.482 0.762695 426.427C31.9937 446.692 69.3848 455.255 106.321 450.601C120.559 448.755 136.203 445.218 148.387 452.815C155.968 457.541 160.675 465.933 162.834 474.603C164.993 483.273 164.895 492.324 164.785 501.258L165.787 503.251C132.181 509.776 96.5735 511.892 64.4026 500.187Z" fill="#F0F0F0"/>
<path d="M1.46083 426.257C17.8551 449.372 41.1147 466.733 67.9358 475.874C73.6749 477.944 79.7043 479.097 85.8023 479.289C91.7485 479.285 97.585 477.688 102.705 474.664C107.536 471.941 112.163 468.596 117.571 467.095C120.351 466.367 123.253 466.236 126.088 466.709C128.922 467.182 131.624 468.249 134.017 469.84C140.083 473.649 144.419 479.411 148.463 485.193C152.954 491.613 157.516 498.352 164.525 502.25C165.375 502.722 164.592 504.012 163.744 503.541C151.549 496.76 147.034 482.377 136.653 473.634C131.809 469.554 125.707 466.909 119.306 468.227C113.708 469.38 108.935 472.825 104.067 475.625C99.1152 478.648 93.4986 480.412 87.7079 480.763C81.6199 480.882 75.5561 479.963 69.7761 478.047C56.6948 473.941 44.3403 467.803 33.1653 459.859C20.361 450.862 9.18978 439.742 0.134918 426.978C-0.42519 426.187 0.90438 425.472 1.46083 426.257Z" fill="white"/>
<path d="M59.1262 473.439C56.9819 477.732 53.3819 481.122 48.969 483.005C44.5561 484.888 39.6177 485.14 35.0357 483.718C34.1095 483.427 34.5182 481.974 35.4456 482.265C39.7099 483.598 44.31 483.362 48.4157 481.6C52.5214 479.839 55.8623 476.667 57.8353 472.658C58.265 471.787 59.5535 472.573 59.1262 473.439Z" fill="white"/>
<path d="M100.438 476.368C97.4171 467.036 90.9904 459.185 82.4394 454.382C81.5918 453.906 82.3738 452.616 83.2204 453.09C92.1095 458.106 98.7808 466.289 101.903 476.007C102.2 476.934 100.733 477.289 100.438 476.368Z" fill="white"/>
<path d="M22.067 449.817C23.2427 448.329 24.0305 446.572 24.3596 444.705C24.6887 442.837 24.5488 440.917 23.9526 439.116C23.644 438.194 25.1111 437.839 25.4176 438.756C26.0672 440.748 26.219 442.869 25.86 444.933C25.5009 446.997 24.6419 448.942 23.3579 450.598C23.25 450.764 23.0828 450.883 22.8904 450.93C22.6979 450.978 22.4947 450.95 22.3219 450.853C22.1515 450.749 22.0292 450.581 21.9814 450.387C21.9337 450.193 21.9644 449.988 22.067 449.817Z" fill="white"/>
<path d="M81.9578 343.698C82.1669 344.268 82.3759 344.838 82.5972 345.412C85.4473 353.066 88.9144 360.476 92.9643 367.569C93.2687 368.122 93.5855 368.678 93.9052 369.221C103.844 386.205 116.85 401.195 132.26 413.43C138.397 418.292 144.895 422.681 151.697 426.558C161.092 431.912 171.704 436.969 178.579 444.881C179.306 445.698 179.981 446.56 180.601 447.461L168.14 501.874C168.05 501.984 167.972 502.097 167.881 502.207L167.483 504.402C167.118 504.226 166.743 504.037 166.379 503.861C166.167 503.76 165.957 503.647 165.745 503.546C165.605 503.475 165.464 503.404 165.334 503.347C165.287 503.324 165.24 503.3 165.206 503.279C165.075 503.223 164.959 503.157 164.841 503.104C162.744 502.049 160.651 500.977 158.562 499.889C158.549 499.886 158.549 499.886 158.54 499.871C142.541 491.73 127.565 481.72 113.924 470.051C113.522 469.697 113.107 469.341 112.71 468.963C106.71 463.631 101.156 457.819 96.1022 451.582C93.3462 448.159 90.7652 444.598 88.3691 440.913C82.1964 431.38 77.5613 420.936 74.6337 409.962C68.8007 388.086 70.0279 364.588 81.0975 345.173C81.381 344.676 81.6619 344.191 81.9578 343.698Z" fill="#F0F0F0"/>
<path d="M82.6205 343.978C81.7959 372.306 89.9166 400.174 105.829 423.624C109.165 428.733 113.286 433.284 118.039 437.109C122.789 440.686 128.411 442.926 134.319 443.595C139.816 444.33 145.523 444.445 150.745 446.503C153.403 447.596 155.799 449.239 157.777 451.324C159.755 453.408 161.271 455.887 162.224 458.599C164.774 465.293 164.767 472.504 164.516 479.556C164.237 487.386 163.823 495.514 167.073 502.847C167.467 503.735 166.066 504.295 165.672 503.407C160.017 490.65 165.069 476.447 162.045 463.215C160.633 457.04 157.353 451.254 151.448 448.452C146.285 446.001 140.4 445.878 134.828 445.182C129.055 444.614 123.508 442.64 118.673 439.434C113.741 435.862 109.452 431.478 105.99 426.467C98.0174 415.312 91.8478 402.971 87.7075 389.899C82.8996 375.005 80.6743 359.399 81.128 343.755C81.1565 342.787 82.6488 343.016 82.6205 343.978Z" fill="white"/>
<path d="M100.261 416.375C95.9648 418.511 91.0495 419.05 86.3926 417.896C81.7357 416.742 77.6406 413.97 74.8386 410.075C74.2743 409.285 75.4753 408.371 76.0403 409.162C78.6429 412.794 82.4578 415.376 86.7965 416.441C91.1351 417.507 95.7118 416.987 99.7004 414.974C100.568 414.537 101.123 415.941 100.261 416.375Z" fill="white"/>
<path d="M131.483 443.59C134.689 434.319 134.283 424.181 130.347 415.197C129.956 414.307 131.357 413.747 131.748 414.636C135.826 423.993 136.227 434.544 132.87 444.184C132.549 445.102 131.164 444.503 131.483 443.59Z" fill="white"/>
<path d="M84.8906 375.198C86.725 374.718 88.4115 373.789 89.7986 372.496C91.1857 371.203 92.23 369.586 92.8376 367.789C93.1464 366.867 94.5313 367.467 94.2245 368.383C93.5439 370.365 92.3884 372.15 90.859 373.582C89.3297 375.014 87.4729 376.05 85.451 376.599C85.2647 376.666 85.0597 376.661 84.8776 376.583C84.6954 376.505 84.5498 376.36 84.4703 376.179C84.397 375.993 84.4001 375.785 84.4788 375.602C84.5574 375.418 84.7055 375.273 84.8906 375.198Z" fill="white"/>
<path d="M1038.13 499.063C1068.61 483.492 1092.89 452.271 1092.22 418.039C1063.71 441.989 1027.66 455.084 990.432 455.007C976.075 454.925 960.115 453.338 948.957 462.375C942.014 467.997 938.374 476.904 937.297 485.774C936.22 494.644 937.429 503.614 938.636 512.467L937.887 514.568C972.04 516.912 1007.64 514.634 1038.13 499.063Z" fill="#F0F0F0"/>
<path d="M1091.5 417.956C1078.08 442.911 1057.13 463 1031.63 475.369C1026.19 478.129 1020.35 480.014 1014.32 480.955C1008.42 481.681 1002.43 480.814 996.977 478.443C991.848 476.334 986.846 473.583 981.294 472.758C978.446 472.378 975.549 472.604 972.794 473.422C970.04 474.24 967.489 475.632 965.31 477.505C959.758 482.031 956.163 488.282 952.86 494.517C949.193 501.44 945.494 508.69 939.016 513.419C938.231 513.992 939.166 515.177 939.95 514.604C951.219 506.376 953.933 491.547 963.16 481.594C967.466 476.949 973.197 473.574 979.712 474.095C985.408 474.551 990.569 477.384 995.744 479.564C1001.03 481.955 1006.82 483.015 1012.61 482.652C1018.67 482.021 1024.57 480.364 1030.07 477.752C1042.55 472.069 1054.06 464.459 1064.17 455.2C1075.77 444.698 1085.49 432.288 1092.91 418.508C1093.37 417.655 1091.96 417.108 1091.5 417.956Z" fill="white"/>
<path d="M1040.08 471.869C1042.73 475.866 1046.72 478.788 1051.33 480.114C1055.94 481.44 1060.87 481.083 1065.25 479.108C1066.13 478.706 1065.55 477.314 1064.66 477.717C1060.59 479.564 1056 479.895 1051.71 478.652C1047.42 477.408 1043.71 474.671 1041.26 470.935C1040.73 470.124 1039.54 471.063 1040.08 471.869Z" fill="white"/>
<path d="M999.437 479.854C1001.29 470.222 1006.7 461.641 1014.6 455.822C1015.38 455.247 1014.44 454.062 1013.66 454.637C1005.46 460.707 999.843 469.648 997.938 479.677C997.758 480.633 999.257 480.805 999.437 479.854Z" fill="white"/>
<path d="M1073.95 443.87C1072.6 442.538 1071.6 440.891 1071.05 439.078C1070.49 437.265 1070.39 435.342 1070.76 433.482C1070.96 432.529 1069.46 432.358 1069.27 433.305C1068.87 435.361 1068.98 437.485 1069.59 439.49C1070.2 441.494 1071.29 443.319 1072.77 444.804C1072.89 444.956 1073.07 445.053 1073.27 445.076C1073.47 445.1 1073.67 445.047 1073.82 444.93C1073.98 444.805 1074.08 444.624 1074.11 444.426C1074.13 444.227 1074.07 444.028 1073.95 443.87Z" fill="white"/>
<path d="M1001.47 345.918C1001.33 346.51 1001.2 347.102 1001.05 347.699C999.16 355.645 996.63 363.425 993.482 370.962C993.248 371.548 993.002 372.139 992.752 372.718C984.975 390.794 973.911 407.269 960.121 421.306C954.628 426.886 948.719 432.041 942.445 436.724C933.779 443.192 923.869 449.516 918.018 458.213C917.397 459.114 916.833 460.052 916.329 461.022L935.383 513.491C935.486 513.588 935.577 513.691 935.681 513.789L936.345 515.918C936.686 515.699 937.034 515.465 937.375 515.246C937.573 515.12 937.767 514.982 937.965 514.856C938.095 514.768 938.226 514.679 938.349 514.608C938.392 514.579 938.436 514.549 938.467 514.524C938.59 514.453 938.697 514.373 938.808 514.305C940.759 513 942.704 511.679 944.644 510.343C944.656 510.338 944.656 510.338 944.664 510.322C959.54 500.277 973.173 488.501 985.276 475.244C985.632 474.843 986 474.439 986.347 474.014C991.647 467.986 996.445 461.534 1000.69 454.724C1003.01 450.987 1005.13 447.136 1007.06 443.185C1012.01 432.965 1015.33 422.03 1016.88 410.78C1019.98 388.353 1015.88 365.184 1002.51 347.277C1002.16 346.819 1001.83 346.372 1001.47 345.918Z" fill="#F0F0F0"/>
<path d="M1000.85 346.278C1005.15 374.29 1000.51 402.945 987.605 428.173C984.922 433.653 981.392 438.677 977.145 443.057C972.87 447.191 967.567 450.105 961.785 451.496C956.421 452.9 950.771 453.716 945.841 456.401C943.338 457.812 941.162 459.737 939.455 462.049C937.748 464.361 936.549 467.008 935.936 469.816C934.228 476.773 935.121 483.928 936.237 490.896C937.476 498.632 938.886 506.648 936.561 514.325C936.28 515.255 937.739 515.637 938.02 514.709C942.065 501.352 935.305 487.878 936.681 474.375C937.323 468.074 939.867 461.928 945.383 458.421C950.206 455.355 956.031 454.509 961.475 453.133C967.135 451.859 972.397 449.219 976.801 445.442C981.257 441.292 984.975 436.413 987.794 431.015C994.336 418.964 998.942 405.958 1001.44 392.476C1004.39 377.104 1004.68 361.343 1002.3 345.873C1002.16 344.916 1000.7 345.327 1000.85 346.278Z" fill="white"/>
<path d="M992.239 420.295C996.765 421.886 1001.71 421.817 1006.19 420.1C1010.67 418.382 1014.39 415.127 1016.69 410.917C1017.16 410.064 1015.85 409.304 1015.39 410.159C1013.25 414.083 1009.78 417.114 1005.61 418.706C1001.43 420.297 996.829 420.343 992.623 418.835C991.709 418.509 991.33 419.97 992.239 420.295Z" fill="white"/>
<path d="M964.599 451.141C960.278 442.336 959.435 432.224 962.237 422.824C962.515 421.893 961.056 421.51 960.778 422.44C957.88 432.228 958.779 442.748 963.295 451.902C963.726 452.774 965.027 452.009 964.599 451.141Z" fill="white"/>
<path d="M1002.43 377.54C1000.55 377.289 998.765 376.575 997.23 375.463C995.694 374.35 994.459 372.873 993.635 371.165C993.215 370.288 991.915 371.054 992.332 371.925C993.251 373.808 994.617 375.437 996.311 376.671C998.004 377.904 999.974 378.703 1002.05 378.999C1002.24 379.044 1002.44 379.013 1002.62 378.913C1002.79 378.813 1002.91 378.652 1002.97 378.462C1003.02 378.268 1002.99 378.063 1002.89 377.89C1002.79 377.718 1002.63 377.592 1002.43 377.54Z" fill="white"/>
<path d="M952.08 22.4115H737.278V36.232C737.275 36.9397 737.518 37.6265 737.966 38.1744C737.533 48.9769 737.278 62.7674 737.278 77.7534V447.247C737.278 481.881 738.668 510.059 740.371 510.059H948.989C950.692 510.059 952.081 481.881 952.081 447.247V77.7534C952.081 62.7674 951.827 48.9769 951.393 38.1744C951.841 37.6264 952.084 36.9396 952.081 36.232L952.08 22.4115Z" fill="white"/>
<path d="M948.989 511.554H740.371C738.745 511.554 737.671 511.554 736.694 491.714C736.108 479.809 735.785 464.016 735.785 447.247V77.7536C735.785 63.2699 736.029 49.1926 736.474 38.1144C736.751 31.4632 737.07 26.1353 737.42 22.2767C738.106 14.723 738.759 13.447 740.371 13.447H948.989C950.601 13.447 951.254 14.723 951.94 22.2767C952.291 26.1499 952.609 31.4778 952.886 38.1115L952.886 38.1144C953.33 49.1809 953.575 63.2583 953.575 77.7536V447.247C953.575 464.017 953.252 479.81 952.665 491.714C951.689 511.554 950.615 511.554 948.989 511.554ZM741.22 508.565H948.14C949.221 504.482 950.587 482.313 950.587 447.247V77.7536C950.587 63.2976 950.343 49.2641 949.901 38.237C949.626 31.6507 949.311 26.3717 948.965 22.5467C948.831 20.4921 948.551 18.4497 948.126 16.4352H741.234C740.809 18.4498 740.529 20.4921 740.395 22.5467C740.05 26.3571 739.735 31.6361 739.459 38.237C739.016 49.2736 738.772 63.3086 738.772 77.7536V447.247C738.772 482.313 740.139 504.482 741.22 508.565Z" fill="#E4E4E4"/>
<path d="M948.989 14.9409H740.371C739.551 14.9425 738.766 15.2688 738.186 15.8485C737.606 16.4282 737.28 17.2139 737.278 18.0337V36.232C737.275 36.9397 737.518 37.6264 737.966 38.1744C738.257 38.5326 738.623 38.8217 739.039 39.0207C739.455 39.2197 739.91 39.3236 740.371 39.3248H948.989C949.45 39.3235 949.905 39.2196 950.321 39.0206C950.736 38.8216 951.103 38.5326 951.393 38.1744C951.841 37.6264 952.084 36.9396 952.081 36.232V18.0337C952.079 17.214 951.753 16.4282 951.173 15.8486C950.594 15.2689 949.808 14.9425 948.989 14.9409Z" fill="#CACACA"/>
<path d="M755.235 30.6367C757.66 30.6367 759.626 28.6702 759.626 26.2445C759.626 23.8188 757.66 21.8524 755.235 21.8524C752.809 21.8524 750.843 23.8188 750.843 26.2445C750.843 28.6702 752.809 30.6367 755.235 30.6367Z" fill="white"/>
<path d="M771.903 30.6367C774.328 30.6367 776.294 28.6702 776.294 26.2445C776.294 23.8188 774.328 21.8524 771.903 21.8524C769.477 21.8524 767.511 23.8188 767.511 26.2445C767.511 28.6702 769.477 30.6367 771.903 30.6367Z" fill="white"/>
<path d="M788.572 30.6367C790.997 30.6367 792.963 28.6702 792.963 26.2445C792.963 23.8188 790.997 21.8524 788.572 21.8524C786.146 21.8524 784.18 23.8188 784.18 26.2445C784.18 28.6702 786.146 30.6367 788.572 30.6367Z" fill="white"/>
<path d="M932.66 20.3796H913.464C913.089 20.3821 912.729 20.5325 912.464 20.7982C912.198 21.0638 912.048 21.4234 912.045 21.799C912.04 22.0129 912.091 22.2245 912.195 22.4116C912.309 22.6522 912.488 22.8557 912.713 22.9985C912.937 23.1413 913.198 23.2176 913.464 23.2185H932.66C932.929 23.2198 933.193 23.1446 933.42 23.0017C933.648 22.8589 933.83 22.6542 933.946 22.4116C934.037 22.2206 934.083 22.0109 934.08 21.799C934.08 21.6126 934.043 21.428 933.972 21.2557C933.901 21.0834 933.796 20.9269 933.664 20.7951C933.532 20.6632 933.376 20.5587 933.204 20.4874C933.031 20.4161 932.847 20.3795 932.66 20.3796Z" fill="white"/>
<path d="M932.66 25.7136H913.464C913.088 25.7136 912.727 25.8632 912.461 26.1294C912.194 26.3955 912.045 26.7566 912.045 27.133C912.045 27.5095 912.194 27.8705 912.461 28.1367C912.727 28.4029 913.088 28.5524 913.464 28.5524H932.66C933.037 28.5524 933.398 28.4029 933.664 28.1367C933.93 27.8705 934.08 27.5095 934.08 27.133C934.08 26.7566 933.93 26.3955 933.664 26.1294C933.398 25.8632 933.037 25.7136 932.66 25.7136Z" fill="white"/>
<path d="M932.66 31.0475H913.464C913.088 31.0475 912.727 31.197 912.461 31.4632C912.194 31.7294 912.045 32.0904 912.045 32.4669C912.045 32.8433 912.194 33.2044 912.461 33.4706C912.727 33.7367 913.088 33.8863 913.464 33.8863H932.66C933.037 33.8863 933.398 33.7367 933.664 33.4706C933.93 33.2044 934.08 32.8433 934.08 32.4669C934.08 32.0904 933.93 31.7294 933.664 31.4632C933.398 31.197 933.037 31.0475 932.66 31.0475Z" fill="white"/>
<path d="M865.437 79.2177H825.939C823.958 79.2184 822.059 80.0058 820.658 81.4066C819.258 82.8074 818.471 84.7071 818.47 86.6882V120.903C818.473 122.884 819.261 124.782 820.661 126.182C822.061 127.582 823.959 128.371 825.939 128.374H865.437C867.416 128.368 869.312 127.579 870.712 126.179C872.111 124.78 872.9 122.883 872.906 120.903V86.6882C872.903 84.7079 872.115 82.8096 870.715 81.4093C869.315 80.009 867.417 79.2209 865.437 79.2177Z" fill="#277DD1"/>
<path d="M914.51 150.726H776.851C775.952 150.726 775.089 151.083 774.453 151.719C773.817 152.355 773.46 153.218 773.46 154.117C773.46 155.017 773.817 155.88 774.453 156.516C775.089 157.152 775.952 157.509 776.851 157.509H914.51C915.409 157.509 916.272 157.152 916.908 156.516C917.544 155.88 917.901 155.017 917.901 154.117C917.901 153.218 917.544 152.355 916.908 151.719C916.272 151.083 915.409 150.726 914.51 150.726Z" fill="#E4E4E4"/>
<path d="M829.136 166.623H776.851C775.952 166.623 775.089 166.981 774.453 167.617C773.817 168.253 773.46 169.115 773.46 170.015C773.46 170.914 773.817 171.777 774.453 172.413C775.089 173.049 775.952 173.406 776.851 173.406H829.136C830.036 173.406 830.898 173.049 831.534 172.413C832.17 171.777 832.527 170.914 832.527 170.015C832.527 169.115 832.17 168.253 831.534 167.617C830.898 166.981 830.036 166.623 829.136 166.623Z" fill="#E4E4E4"/>
<path d="M865.437 227.135H825.939C823.958 227.135 822.059 227.923 820.658 229.324C819.258 230.724 818.471 232.624 818.47 234.605V268.82C818.473 270.801 819.261 272.699 820.661 274.099C822.061 275.499 823.959 276.288 825.939 276.291H865.437C867.416 276.285 869.312 275.496 870.712 274.096C872.111 272.697 872.9 270.8 872.906 268.82V234.605C872.903 232.625 872.115 230.727 870.715 229.326C869.315 227.926 867.417 227.138 865.437 227.135Z" fill="#277DD1"/>
<path d="M914.51 298.643H776.851C775.952 298.643 775.089 299 774.453 299.636C773.817 300.272 773.46 301.135 773.46 302.034C773.46 302.934 773.817 303.797 774.453 304.433C775.089 305.069 775.952 305.426 776.851 305.426H914.51C915.409 305.426 916.272 305.069 916.908 304.433C917.544 303.797 917.901 302.934 917.901 302.034C917.901 301.135 917.544 300.272 916.908 299.636C916.272 299 915.409 298.643 914.51 298.643Z" fill="#E4E4E4"/>
<path d="M829.136 314.54H776.851C775.952 314.54 775.089 314.898 774.453 315.534C773.817 316.17 773.46 317.032 773.46 317.932C773.46 318.831 773.817 319.694 774.453 320.33C775.089 320.966 775.952 321.323 776.851 321.323H829.136C830.036 321.323 830.898 320.966 831.534 320.33C832.17 319.694 832.527 318.831 832.527 317.932C832.527 317.032 832.17 316.17 831.534 315.534C830.898 314.898 830.036 314.54 829.136 314.54Z" fill="#E4E4E4"/>
<path d="M865.437 375.052H825.939C823.958 375.052 822.059 375.84 820.658 377.241C819.258 378.641 818.471 380.541 818.47 382.522V416.737C818.473 418.718 819.261 420.616 820.661 422.016C822.061 423.416 823.959 424.205 825.939 424.208H865.437C867.416 424.202 869.312 423.413 870.712 422.013C872.111 420.614 872.9 418.717 872.906 416.737V382.522C872.903 380.542 872.115 378.644 870.715 377.243C869.315 375.843 867.417 375.055 865.437 375.052Z" fill="#277DD1"/>
<path d="M914.51 446.56H776.851C775.952 446.56 775.089 446.917 774.453 447.553C773.817 448.189 773.46 449.052 773.46 449.951C773.46 450.851 773.817 451.714 774.453 452.35C775.089 452.986 775.952 453.343 776.851 453.343H914.51C915.409 453.343 916.272 452.986 916.908 452.35C917.544 451.714 917.901 450.851 917.901 449.951C917.901 449.052 917.544 448.189 916.908 447.553C916.272 446.917 915.409 446.56 914.51 446.56Z" fill="#E4E4E4"/>
<path d="M829.136 462.457H776.851C775.952 462.457 775.089 462.814 774.453 463.451C773.817 464.087 773.46 464.949 773.46 465.849C773.46 466.748 773.817 467.611 774.453 468.247C775.089 468.883 775.952 469.24 776.851 469.24H829.136C830.036 469.24 830.898 468.883 831.534 468.247C832.17 467.611 832.527 466.748 832.527 465.849C832.527 464.949 832.17 464.087 831.534 463.451C830.898 462.814 830.036 462.457 829.136 462.457Z" fill="#E4E4E4"/>
<path d="M678.704 4.58672C678.703 3.76697 678.377 2.98124 677.797 2.40157C677.218 1.82189 676.432 1.49551 675.612 1.4939H123.407C122.588 1.49548 121.802 1.82182 121.222 2.40148C120.643 2.98113 120.316 3.7669 120.314 4.58672V22.785C120.312 23.5426 120.595 24.2735 121.107 24.8319C120.614 37.1882 120.314 53.474 120.314 71.3137V482.06C120.314 520.578 121.704 551.895 123.407 551.895H675.612C677.316 551.895 678.704 520.578 678.704 482.06V71.3137C678.704 53.474 678.406 37.1882 677.913 24.8319C678.425 24.2734 678.707 23.5425 678.704 22.785V4.58672Z" fill="white"/>
<path d="M675.612 553.389H123.407C121.719 553.389 120.7 553.389 119.729 531.488C119.143 518.257 118.82 500.704 118.82 482.06V71.3138C118.82 54.1206 119.102 37.592 119.614 24.7724C120.596 -0.000102122 121.714 -0.00012207 123.407 -0.00012207H675.612C677.305 -0.00012207 678.423 0.00427516 679.406 24.7724C679.916 37.5803 680.198 54.1089 680.198 71.3138V482.059C680.198 500.704 679.875 518.258 679.289 531.488C678.319 553.389 677.3 553.389 675.612 553.389ZM124.279 550.4H674.74C675.962 545.716 677.21 519.412 677.21 482.059V71.3138C677.21 54.1476 676.93 37.6605 676.42 24.892C675.798 9.19873 675.071 4.42239 674.724 2.9881H124.295C123.948 4.42245 123.221 9.19802 122.599 24.8913C122.089 37.6729 121.808 54.1592 121.808 71.3138V482.059C121.808 519.412 123.056 545.715 124.279 550.4Z" fill="#E4E4E4"/>
<path d="M675.613 1.4939H123.407C122.588 1.49548 121.802 1.82182 121.222 2.40148C120.643 2.98113 120.316 3.7669 120.314 4.58672V22.785C120.312 23.5426 120.595 24.2735 121.107 24.8319C121.394 25.1598 121.747 25.4227 122.144 25.6031C122.541 25.7835 122.971 25.8771 123.407 25.8778H675.612C676.048 25.8771 676.479 25.7835 676.876 25.6031C677.272 25.4227 677.626 25.1598 677.913 24.8319C678.425 24.2734 678.707 23.5425 678.704 22.785V4.58672C678.703 3.76699 678.377 2.98128 677.797 2.40161C677.218 1.82194 676.432 1.49554 675.613 1.4939Z" fill="#CACACA"/>
<path d="M138.27 17.1898C140.696 17.1898 142.662 15.2233 142.662 12.7976C142.662 10.3719 140.696 8.40552 138.27 8.40552C135.845 8.40552 133.879 10.3719 133.879 12.7976C133.879 15.2233 135.845 17.1898 138.27 17.1898Z" fill="white"/>
<path d="M154.938 17.1898C157.364 17.1898 159.33 15.2233 159.33 12.7976C159.33 10.3719 157.364 8.40552 154.938 8.40552C152.513 8.40552 150.547 10.3719 150.547 12.7976C150.547 15.2233 152.513 17.1898 154.938 17.1898Z" fill="white"/>
<path d="M171.608 17.1898C174.033 17.1898 175.999 15.2233 175.999 12.7976C175.999 10.3719 174.033 8.40552 171.608 8.40552C169.182 8.40552 167.216 10.3719 167.216 12.7976C167.216 15.2233 169.182 17.1898 171.608 17.1898Z" fill="white"/>
<path d="M659.284 6.93262H640.088C639.711 6.93262 639.35 7.08215 639.084 7.34834C638.818 7.61453 638.668 7.97557 638.668 8.35202C638.668 8.72847 638.818 9.0895 639.084 9.35569C639.35 9.62188 639.711 9.77144 640.088 9.77144H659.284C659.66 9.77144 660.021 9.62188 660.287 9.35569C660.554 9.0895 660.703 8.72847 660.703 8.35202C660.703 7.97557 660.554 7.61453 660.287 7.34834C660.021 7.08215 659.66 6.93262 659.284 6.93262Z" fill="white"/>
<path d="M659.284 12.2666H640.088C639.711 12.2666 639.35 12.4161 639.084 12.6823C638.818 12.9485 638.668 13.3096 638.668 13.686C638.668 14.0625 638.818 14.4235 639.084 14.6897C639.35 14.9559 639.711 15.1054 640.088 15.1054H659.284C659.66 15.1054 660.021 14.9559 660.287 14.6897C660.554 14.4235 660.703 14.0625 660.703 13.686C660.703 13.3096 660.554 12.9485 660.287 12.6823C660.021 12.4161 659.66 12.2666 659.284 12.2666Z" fill="white"/>
<path d="M659.284 17.6006H640.088C639.711 17.6006 639.35 17.7501 639.084 18.0163C638.818 18.2825 638.668 18.6435 638.668 19.02C638.668 19.3964 638.818 19.7575 639.084 20.0237C639.35 20.2899 639.711 20.4394 640.088 20.4394H659.284C659.66 20.4394 660.021 20.2899 660.287 20.0237C660.554 19.7575 660.703 19.3964 660.703 19.02C660.703 18.6435 660.554 18.2825 660.287 18.0163C660.021 17.7501 659.66 17.6006 659.284 17.6006Z" fill="white"/>
<path d="M301.893 92.6647H237.269C234.029 92.6686 230.923 93.9576 228.632 96.2488C226.342 98.54 225.053 101.646 225.049 104.887V160.871C225.053 164.111 226.342 167.217 228.632 169.509C230.923 171.8 234.029 173.089 237.269 173.093H301.893C305.133 173.089 308.239 171.8 310.53 169.509C312.82 167.217 314.109 164.111 314.113 160.871V104.887C314.109 101.646 312.82 98.54 310.53 96.2488C308.239 93.9576 305.133 92.6686 301.893 92.6647Z" fill="#277DD1"/>
<path d="M568.443 114.314H343.199C341.727 114.314 340.315 114.899 339.274 115.94C338.234 116.981 337.649 118.393 337.649 119.865C337.649 121.337 338.234 122.749 339.274 123.79C340.315 124.831 341.727 125.416 343.199 125.416H568.443C569.914 125.416 571.326 124.831 572.367 123.79C573.407 122.749 573.992 121.337 573.992 119.865C573.992 118.393 573.407 116.981 572.367 115.94C571.326 114.899 569.914 114.314 568.443 114.314Z" fill="#E4E4E4"/>
<path d="M428.752 140.327H343.199C341.727 140.327 340.315 140.911 339.274 141.952C338.234 142.993 337.649 144.405 337.649 145.877C337.649 147.349 338.234 148.761 339.274 149.802C340.315 150.843 341.727 151.428 343.199 151.428H428.752C430.224 151.428 431.635 150.843 432.676 149.802C433.717 148.761 434.302 147.349 434.302 145.877C434.302 144.405 433.717 142.993 432.676 141.952C431.635 140.911 430.224 140.327 428.752 140.327Z" fill="#E4E4E4"/>
<path d="M301.893 242.076H237.269C234.029 242.08 230.923 243.369 228.632 245.66C226.342 247.951 225.053 251.058 225.049 254.298V310.282C225.053 313.522 226.342 316.629 228.632 318.92C230.923 321.211 234.029 322.5 237.269 322.504H301.893C305.133 322.5 308.239 321.211 310.53 318.92C312.82 316.629 314.109 313.522 314.113 310.282V254.298C314.109 251.058 312.82 247.951 310.53 245.66C308.239 243.369 305.133 242.08 301.893 242.076Z" fill="#277DD1"/>
<path d="M568.443 263.725H343.199C341.727 263.725 340.315 264.31 339.274 265.351C338.234 266.392 337.649 267.804 337.649 269.276C337.649 270.748 338.234 272.16 339.274 273.201C340.315 274.242 341.727 274.827 343.199 274.827H568.443C569.914 274.827 571.326 274.242 572.367 273.201C573.407 272.16 573.992 270.748 573.992 269.276C573.992 267.804 573.407 266.392 572.367 265.351C571.326 264.31 569.914 263.725 568.443 263.725Z" fill="#E4E4E4"/>
<path d="M428.752 289.738H343.199C341.727 289.738 340.315 290.323 339.274 291.364C338.234 292.404 337.649 293.816 337.649 295.288C337.649 296.761 338.234 298.172 339.274 299.213C340.315 300.254 341.727 300.839 343.199 300.839H428.752C430.224 300.839 431.635 300.254 432.676 299.213C433.717 298.172 434.302 296.761 434.302 295.288C434.302 293.816 433.717 292.404 432.676 291.364C431.635 290.323 430.224 289.738 428.752 289.738Z" fill="#E4E4E4"/>
<path d="M301.893 391.487H237.269C234.029 391.491 230.923 392.78 228.632 395.071C226.342 397.362 225.053 400.469 225.049 403.709V459.693C225.053 462.933 226.342 466.04 228.632 468.331C230.923 470.622 234.029 471.911 237.269 471.915H301.893C305.133 471.911 308.239 470.622 310.53 468.331C312.82 466.04 314.109 462.933 314.113 459.693V403.709C314.109 400.469 312.82 397.362 310.53 395.071C308.239 392.78 305.133 391.491 301.893 391.487Z" fill="#277DD1"/>
<path d="M568.443 413.137H343.199C341.727 413.137 340.315 413.721 339.274 414.762C338.234 415.803 337.649 417.215 337.649 418.687C337.649 420.159 338.234 421.571 339.274 422.612C340.315 423.653 341.727 424.238 343.199 424.238H568.443C569.914 424.238 571.326 423.653 572.367 422.612C573.407 421.571 573.992 420.159 573.992 418.687C573.992 417.215 573.407 415.803 572.367 414.762C571.326 413.721 569.914 413.137 568.443 413.137Z" fill="#E4E4E4"/>
<path d="M428.752 439.149H343.199C341.727 439.149 340.315 439.734 339.274 440.775C338.234 441.816 337.649 443.227 337.649 444.7C337.649 446.172 338.234 447.584 339.274 448.624C340.315 449.665 341.727 450.25 343.199 450.25H428.752C430.224 450.25 431.635 449.665 432.676 448.624C433.717 447.584 434.302 446.172 434.302 444.7C434.302 443.227 433.717 441.816 432.676 440.775C431.635 439.734 430.224 439.149 428.752 439.149Z" fill="#E4E4E4"/>
<path d="M774.211 650.506H404.259C402.553 650.506 401.166 624.285 401.166 592.051V248.206C401.166 215.972 402.553 189.751 404.259 189.751H774.211C775.917 189.751 777.304 215.972 777.304 248.206V592.051C777.304 624.285 775.917 650.506 774.211 650.506Z" fill="white"/>
<path d="M774.211 652H404.258C402.693 652 401.562 652 400.581 633.446C399.994 622.367 399.671 607.666 399.671 592.051V248.206C399.671 232.591 399.994 217.89 400.581 206.812C401.562 188.257 402.693 188.257 404.258 188.257H774.211C775.776 188.257 776.907 188.257 777.889 206.812C778.475 217.89 778.798 232.591 778.798 248.206V592.051C778.798 607.666 778.475 622.367 777.889 633.446C776.907 652 775.776 652 774.211 652ZM405.085 649.012H773.384C774.457 645.141 775.81 624.517 775.81 592.051V248.206C775.81 215.739 774.457 195.116 773.384 191.245H405.085C404.013 195.116 402.659 215.739 402.659 248.206V592.051C402.659 624.517 404.013 645.141 405.085 649.012Z" fill="#E4E4E4"/>
<path d="M774.211 214.135H404.259C403.439 214.135 402.652 213.808 402.072 213.228C401.493 212.648 401.166 211.862 401.166 211.042V192.845C401.166 192.024 401.493 191.238 402.072 190.658C402.652 190.078 403.439 189.752 404.259 189.751H774.211C775.031 189.752 775.817 190.078 776.397 190.658C776.977 191.238 777.303 192.024 777.304 192.845V211.042C777.303 211.862 776.977 212.648 776.397 213.228C775.817 213.808 775.031 214.135 774.211 214.135Z" fill="#CACACA"/>
<path d="M419.116 205.448C421.541 205.448 423.507 203.481 423.507 201.056C423.507 198.63 421.541 196.663 419.116 196.663C416.691 196.663 414.725 198.63 414.725 201.056C414.725 203.481 416.691 205.448 419.116 205.448Z" fill="white"/>
<path d="M435.784 205.448C438.209 205.448 440.175 203.481 440.175 201.056C440.175 198.63 438.209 196.663 435.784 196.663C433.359 196.663 431.393 198.63 431.393 201.056C431.393 203.481 433.359 205.448 435.784 205.448Z" fill="white"/>
<path d="M452.453 205.448C454.879 205.448 456.845 203.481 456.845 201.056C456.845 198.63 454.879 196.663 452.453 196.663C450.028 196.663 448.062 198.63 448.062 201.056C448.062 203.481 450.028 205.448 452.453 205.448Z" fill="white"/>
<path d="M757.88 198.033H738.686C738.309 198.033 737.947 197.883 737.681 197.616C737.414 197.349 737.264 196.988 737.264 196.61C737.264 196.233 737.414 195.872 737.681 195.605C737.947 195.338 738.309 195.188 738.686 195.188H757.88C758.256 195.19 758.617 195.34 758.882 195.607C759.148 195.873 759.297 196.234 759.297 196.61C759.297 196.987 759.148 197.348 758.882 197.614C758.617 197.881 758.256 198.031 757.88 198.033Z" fill="white"/>
<path d="M757.88 203.365H738.686C738.309 203.365 737.947 203.215 737.681 202.949C737.414 202.682 737.264 202.32 737.264 201.943C737.264 201.566 737.414 201.204 737.681 200.938C737.947 200.671 738.309 200.521 738.686 200.521H757.88C758.257 200.521 758.619 200.671 758.885 200.938C759.152 201.204 759.302 201.566 759.302 201.943C759.302 202.32 759.152 202.682 758.885 202.949C758.619 203.215 758.257 203.365 757.88 203.365Z" fill="white"/>
<path d="M757.88 208.698H738.686C738.309 208.698 737.947 208.548 737.681 208.281C737.414 208.015 737.264 207.653 737.264 207.276C737.264 206.899 737.414 206.537 737.681 206.27C737.947 206.004 738.309 205.854 738.686 205.854H757.88C758.256 205.855 758.617 206.005 758.882 206.272C759.148 206.538 759.297 206.899 759.297 207.276C759.297 207.652 759.148 208.013 758.882 208.28C758.617 208.546 758.256 208.697 757.88 208.698Z" fill="white"/>
<path d="M517.941 327.086H470.745C468.379 327.083 466.111 326.142 464.437 324.468C462.764 322.795 461.823 320.526 461.82 318.159V277.275C461.823 274.909 462.764 272.64 464.437 270.966C466.111 269.293 468.379 268.351 470.745 268.349H517.941C520.308 268.351 522.576 269.293 524.249 270.966C525.923 272.64 526.864 274.909 526.866 277.275V318.159C526.864 320.526 525.923 322.794 524.249 324.468C522.576 326.141 520.308 327.083 517.941 327.086Z" fill="#277DD1"/>
<path d="M712.598 292.272H548.108C547.034 292.272 546.003 291.845 545.243 291.085C544.483 290.325 544.056 289.294 544.056 288.219C544.056 287.144 544.483 286.113 545.243 285.353C546.003 284.593 547.034 284.166 548.108 284.166H712.598C713.672 284.166 714.703 284.593 715.463 285.353C716.223 286.113 716.65 287.144 716.65 288.219C716.65 289.294 716.223 290.325 715.463 291.085C714.703 291.845 713.672 292.272 712.598 292.272Z" fill="#E4E4E4"/>
<path d="M610.584 311.268H548.108C547.034 311.268 546.003 310.841 545.243 310.081C544.483 309.321 544.056 308.29 544.056 307.215C544.056 306.14 544.483 305.109 545.243 304.349C546.003 303.589 547.034 303.162 548.108 303.162H610.584C611.117 303.161 611.644 303.265 612.137 303.469C612.629 303.672 613.077 303.97 613.454 304.347C613.831 304.723 614.13 305.17 614.335 305.662C614.539 306.155 614.644 306.682 614.644 307.215C614.644 307.748 614.539 308.276 614.335 308.768C614.13 309.26 613.831 309.707 613.454 310.084C613.077 310.46 612.629 310.758 612.137 310.962C611.644 311.165 611.117 311.269 610.584 311.268Z" fill="#E4E4E4"/>
<path d="M517.941 448.108H470.745C468.379 448.106 466.111 447.164 464.437 445.491C462.764 443.818 461.823 441.549 461.82 439.182V398.298C461.823 395.932 462.764 393.663 464.437 391.989C466.111 390.316 468.379 389.374 470.745 389.372H517.941C520.308 389.374 522.576 390.316 524.249 391.989C525.923 393.663 526.864 395.932 526.866 398.298V439.182C526.864 441.549 525.923 443.817 524.249 445.491C522.576 447.164 520.308 448.106 517.941 448.108Z" fill="#277DD1"/>
<path d="M712.598 413.295H548.108C547.034 413.295 546.003 412.868 545.243 412.108C544.483 411.348 544.056 410.317 544.056 409.242C544.056 408.167 544.483 407.136 545.243 406.376C546.003 405.616 547.034 405.189 548.108 405.189H712.598C713.672 405.189 714.703 405.616 715.463 406.376C716.223 407.136 716.65 408.167 716.65 409.242C716.65 410.317 716.223 411.348 715.463 412.108C714.703 412.868 713.672 413.295 712.598 413.295Z" fill="#E4E4E4"/>
<path d="M610.584 432.291H548.108C547.034 432.291 546.003 431.864 545.243 431.104C544.483 430.344 544.056 429.313 544.056 428.238C544.056 427.163 544.483 426.132 545.243 425.372C546.003 424.612 547.034 424.185 548.108 424.185H610.584C611.117 424.184 611.644 424.288 612.137 424.492C612.629 424.695 613.077 424.993 613.454 425.37C613.831 425.746 614.13 426.193 614.335 426.685C614.539 427.178 614.644 427.705 614.644 428.238C614.644 428.771 614.539 429.299 614.335 429.791C614.13 430.283 613.831 430.73 613.454 431.107C613.077 431.483 612.629 431.781 612.137 431.985C611.644 432.188 611.117 432.292 610.584 432.291Z" fill="#E4E4E4"/>
<path d="M517.941 569.132H470.745C468.379 569.129 466.111 568.187 464.437 566.514C462.764 564.841 461.823 562.572 461.82 560.205V519.321C461.823 516.955 462.764 514.686 464.437 513.012C466.111 511.339 468.379 510.397 470.745 510.395H517.941C520.308 510.397 522.576 511.339 524.249 513.012C525.923 514.686 526.864 516.955 526.866 519.321V560.205C526.864 562.572 525.923 564.841 524.249 566.514C522.576 568.187 520.308 569.129 517.941 569.132Z" fill="#277DD1"/>
<path d="M712.598 534.318H548.108C547.034 534.318 546.003 533.891 545.243 533.131C544.483 532.371 544.056 531.34 544.056 530.265C544.056 529.19 544.483 528.159 545.243 527.399C546.003 526.639 547.034 526.212 548.108 526.212H712.598C713.672 526.212 714.703 526.639 715.463 527.399C716.223 528.159 716.65 529.19 716.65 530.265C716.65 531.34 716.223 532.371 715.463 533.131C714.703 533.891 713.672 534.318 712.598 534.318Z" fill="#E4E4E4"/>
<path d="M610.584 553.314H548.108C547.034 553.314 546.003 552.887 545.243 552.127C544.483 551.367 544.056 550.336 544.056 549.261C544.056 548.186 544.483 547.156 545.243 546.395C546.003 545.635 547.034 545.209 548.108 545.209H610.584C611.117 545.207 611.644 545.312 612.137 545.515C612.629 545.718 613.077 546.016 613.454 546.393C613.831 546.769 614.13 547.216 614.335 547.708C614.539 548.201 614.644 548.728 614.644 549.261C614.644 549.794 614.539 550.322 614.335 550.814C614.13 551.306 613.831 551.753 613.454 552.13C613.077 552.506 612.629 552.804 612.137 553.008C611.644 553.211 611.117 553.315 610.584 553.314Z" fill="#E4E4E4"/>
</g>
<defs>
<clipPath id="clip0_4_387">
<rect width="1093" height="652" fill="white"/>
</clipPath>
</defs>
</svg>
