<svg width="560" height="376" viewBox="0 0 560 376" fill="none" xmlns="http://www.w3.org/2000/svg">
<path d="M279.514 331.959C359.88 331.959 425.029 266.832 425.029 186.494C425.029 106.156 359.88 41.0288 279.514 41.0288C199.149 41.0288 134 106.156 134 186.494C134 266.832 199.149 331.959 279.514 331.959Z" fill="#E6E6E6"/>
<path d="M404.725 186.494C404.739 206.024 400.176 225.287 391.399 242.736C382.623 260.186 369.878 275.336 354.188 286.973C353.139 287.758 352.069 288.522 350.993 289.267C330.011 303.847 305.069 311.661 279.515 311.661C253.961 311.661 229.019 303.847 208.037 289.267C206.961 288.522 205.891 287.758 204.842 286.973C189.162 275.326 176.426 260.173 167.651 242.726C158.875 225.279 154.305 206.022 154.305 186.494C154.305 166.966 158.875 147.708 167.651 130.261C176.426 112.814 189.162 97.6618 204.842 86.0147C205.891 85.23 206.961 84.4653 208.037 83.7212C229.019 69.1409 253.961 61.3263 279.515 61.3263C305.069 61.3263 330.011 69.1409 350.993 83.7212C352.069 84.4653 353.139 85.23 354.188 86.0147C369.879 97.6515 382.623 112.802 391.4 130.251C400.176 147.701 404.74 166.963 404.725 186.494L404.725 186.494Z" fill="white"/>
<path d="M279.514 300.836C342.685 300.836 393.896 249.643 393.896 186.493C393.896 123.344 342.685 72.1508 279.514 72.1508C216.343 72.1508 165.133 123.344 165.133 186.493C165.133 249.643 216.343 300.836 279.514 300.836Z" fill="#277DD1"/>
<path d="M279.854 64.0315C278.868 64.0336 277.922 64.4263 277.224 65.1236C276.527 65.821 276.134 66.7663 276.132 67.7526V83.9904C276.132 84.9773 276.524 85.9238 277.222 86.6216C277.92 87.3195 278.867 87.7115 279.854 87.7115C280.841 87.7115 281.788 87.3195 282.486 86.6216C283.184 85.9238 283.576 84.9773 283.576 83.9904V67.7531C283.574 66.7669 283.182 65.8216 282.484 65.1242C281.786 64.4268 280.841 64.0341 279.854 64.0321V64.0315Z" fill="white"/>
<path d="M354.184 86.0187C353.136 85.234 352.066 84.4693 350.99 83.7252C350.344 83.6831 349.699 83.81 349.117 84.0936C348.535 84.3771 348.038 84.8074 347.673 85.342L338.53 98.7586C338.251 99.1624 338.055 99.6172 337.953 100.097C337.851 100.577 337.844 101.072 337.935 101.554C338.025 102.036 338.209 102.496 338.477 102.907C338.746 103.317 339.093 103.671 339.498 103.947C339.904 104.223 340.36 104.416 340.841 104.515C341.321 104.614 341.817 104.618 342.298 104.525C342.78 104.432 343.239 104.244 343.648 103.974C344.057 103.703 344.408 103.354 344.682 102.947L353.826 89.53C354.174 89.021 354.389 88.4331 354.451 87.8199C354.514 87.2066 354.422 86.5875 354.184 86.0187Z" fill="white"/>
<path d="M395.727 147.193C395.356 146.28 394.637 145.552 393.729 145.169C392.82 144.786 391.797 144.779 390.884 145.15L375.831 151.26C374.926 151.638 374.207 152.357 373.829 153.263C373.452 154.168 373.448 155.185 373.817 156.094C374.186 157.002 374.899 157.729 375.801 158.114C376.703 158.5 377.721 158.514 378.633 158.154L393.686 152.044C394.599 151.67 395.326 150.949 395.709 150.04C396.091 149.131 396.098 148.107 395.727 147.193Z" fill="white"/>
<path d="M220.495 98.7586L211.351 85.342C210.987 84.8074 210.489 84.3771 209.907 84.0936C209.326 83.81 208.68 83.6831 208.035 83.7252C206.958 84.4693 205.889 85.234 204.84 86.0187C204.602 86.5875 204.51 87.2066 204.573 87.8199C204.636 88.4331 204.851 89.021 205.199 89.53L214.342 102.947C214.901 103.756 215.756 104.311 216.723 104.491C217.689 104.672 218.688 104.462 219.501 103.909C220.313 103.356 220.874 102.504 221.06 101.539C221.246 100.574 221.043 99.5743 220.495 98.7586Z" fill="white"/>
<path d="M183.193 151.26L168.141 145.15C167.228 144.79 166.211 144.804 165.309 145.19C164.407 145.576 163.694 146.302 163.325 147.21C162.955 148.119 162.96 149.136 163.337 150.042C163.714 150.947 164.433 151.667 165.339 152.045L180.391 158.154C181.304 158.515 182.321 158.5 183.223 158.115C184.125 157.729 184.838 157.003 185.207 156.094C185.577 155.186 185.572 154.168 185.195 153.263C184.818 152.358 184.098 151.638 183.193 151.26Z" fill="white"/>
<path d="M279.854 285.277C278.868 285.279 277.922 285.672 277.224 286.369C276.527 287.067 276.134 288.012 276.132 288.998V305.236C276.132 306.223 276.524 307.17 277.222 307.867C277.92 308.565 278.867 308.957 279.854 308.957C280.841 308.957 281.788 308.565 282.486 307.867C283.184 307.17 283.576 306.223 283.576 305.236V288.999C283.574 288.013 283.182 287.067 282.484 286.37C281.786 285.673 280.841 285.279 279.854 285.277Z" fill="white"/>
<path d="M353.826 283.46L344.682 270.043C344.408 269.636 344.057 269.287 343.648 269.016C343.239 268.746 342.78 268.558 342.298 268.465C341.817 268.372 341.321 268.376 340.841 268.475C340.36 268.574 339.904 268.767 339.498 269.043C339.093 269.319 338.746 269.673 338.477 270.083C338.209 270.494 338.025 270.954 337.935 271.436C337.844 271.918 337.851 272.413 337.953 272.893C338.055 273.373 338.251 273.828 338.53 274.231L347.673 287.648C348.038 288.183 348.535 288.613 349.117 288.897C349.699 289.18 350.344 289.307 350.99 289.265C352.066 288.521 353.136 287.756 354.184 286.972C354.422 286.403 354.514 285.784 354.451 285.171C354.389 284.557 354.174 283.969 353.826 283.46Z" fill="white"/>
<path d="M393.683 220.947L378.631 214.837C377.718 214.476 376.701 214.491 375.799 214.877C374.897 215.262 374.184 215.988 373.815 216.897C373.445 217.806 373.45 218.823 373.827 219.728C374.204 220.634 374.923 221.353 375.829 221.731L390.881 227.841C391.794 228.201 392.811 228.187 393.713 227.801C394.615 227.416 395.328 226.689 395.697 225.781C396.067 224.872 396.062 223.855 395.685 222.95C395.308 222.044 394.588 221.324 393.683 220.947H393.683Z" fill="white"/>
<path d="M219.513 269.065C218.697 268.509 217.694 268.301 216.725 268.485C215.755 268.669 214.898 269.23 214.342 270.046L205.199 283.463C204.851 283.972 204.636 284.559 204.573 285.173C204.51 285.786 204.602 286.405 204.84 286.974C205.889 287.759 206.958 288.523 208.035 289.267C208.68 289.309 209.326 289.182 209.908 288.899C210.489 288.615 210.987 288.185 211.351 287.65L220.495 274.233C220.77 273.83 220.963 273.375 221.062 272.897C221.162 272.419 221.166 271.926 221.075 271.445C220.984 270.965 220.799 270.508 220.531 270.099C220.263 269.691 219.917 269.34 219.513 269.065Z" fill="white"/>
<path d="M185.24 216.879C184.869 215.966 184.15 215.238 183.242 214.855C182.334 214.472 181.31 214.465 180.397 214.836L165.344 220.946C164.887 221.127 164.47 221.396 164.117 221.739C163.765 222.082 163.483 222.491 163.29 222.943C163.096 223.395 162.994 223.881 162.99 224.372C162.985 224.864 163.078 225.352 163.263 225.807C163.449 226.263 163.722 226.677 164.069 227.026C164.415 227.376 164.827 227.653 165.281 227.842C165.735 228.031 166.222 228.128 166.714 228.128C167.206 228.128 167.693 228.03 168.146 227.84L183.199 221.731C184.112 221.357 184.84 220.636 185.223 219.727C185.606 218.818 185.613 217.794 185.243 216.88L185.24 216.879Z" fill="white"/>
<path d="M284.679 184.648C285.022 186.682 284.544 188.769 283.351 190.452C282.157 192.134 280.345 193.275 278.311 193.624L212.255 204.856C210.221 205.199 208.134 204.722 206.452 203.528C204.77 202.334 203.631 200.522 203.285 198.489C202.939 196.456 203.414 194.369 204.607 192.686C205.799 191.003 207.611 189.863 209.645 189.515L275.7 178.283C277.735 177.94 279.823 178.417 281.506 179.61C283.189 180.804 284.33 182.615 284.679 184.648Z" fill="#090814"/>
<path d="M354.202 257.809C353.253 258.763 351.965 259.302 350.619 259.307C349.273 259.313 347.98 258.784 347.024 257.838L275.916 187.311C274.976 186.36 274.45 185.076 274.452 183.74C274.454 182.403 274.983 181.121 275.925 180.172C276.867 179.223 278.145 178.684 279.482 178.672C280.819 178.659 282.107 179.175 283.066 180.107L354.174 250.633C355.129 251.581 355.668 252.87 355.673 254.215C355.679 255.56 355.15 256.853 354.203 257.809L354.202 257.809Z" fill="#090814"/>
<path d="M279.515 195.291C284.375 195.291 288.314 191.353 288.314 186.495C288.314 181.638 284.375 177.7 279.515 177.7C274.656 177.7 270.717 181.638 270.717 186.495C270.717 191.353 274.656 195.291 279.515 195.291Z" fill="#CCCCCC"/>
<path d="M218.907 33.9783C205.401 55.2045 184.795 69.2913 159.382 78.545C158.88 78.921 158.308 79.1945 157.7 79.3498C157.092 79.5051 156.46 79.5392 155.839 79.4501C155.218 79.361 154.62 79.1505 154.081 78.8305C153.541 78.5106 153.07 78.0876 152.694 77.5855C138.889 59.1605 142.004 32.8274 160.225 18.7484C164.63 15.3504 169.666 12.861 175.041 11.4246C180.416 9.98823 186.023 9.6335 191.536 10.381C197.049 11.1285 202.359 12.9634 207.157 15.7791C211.955 18.5948 216.146 22.3352 219.486 26.7833L219.868 27.2931C220.244 27.7951 220.517 28.3662 220.673 28.9739C220.828 29.5816 220.862 30.2139 220.773 30.8347C220.684 31.4556 220.473 32.0528 220.153 32.5922C219.833 33.1317 219.41 33.6029 218.908 33.9789L218.907 33.9783Z" fill="#E6E6E6"/>
<path d="M339.543 26.7834C342.883 22.3355 347.073 18.5952 351.871 15.7796C356.669 12.964 361.979 11.1291 367.492 10.3816C373.005 9.63413 378.612 9.98882 383.987 11.4251C389.362 12.8614 394.398 15.3507 398.802 18.7485C417.021 32.8292 420.138 59.1605 406.334 77.5856C405.958 78.0876 405.487 78.5107 404.947 78.8306C404.407 79.1505 403.81 79.361 403.189 79.4501C402.568 79.5392 401.935 79.5052 401.327 79.3499C400.719 79.1946 400.148 78.9211 399.646 78.5451C376.054 69.5157 356.707 53.89 340.12 33.9784C339.618 33.6025 339.195 33.1313 338.875 32.5918C338.555 32.0523 338.344 31.4551 338.255 30.8343C338.166 30.2134 338.2 29.5811 338.356 28.9734C338.511 28.3657 338.784 27.7946 339.161 27.2926L339.543 26.7834Z" fill="#E6E6E6"/>
<path d="M333.622 312.522C332.762 313.006 332.128 313.81 331.86 314.759C331.592 315.708 331.711 316.725 332.191 317.587L353.674 355.965C354.159 356.821 354.963 357.451 355.911 357.716C356.859 357.981 357.873 357.86 358.732 357.38C359.591 356.899 360.224 356.098 360.494 355.152C360.764 354.206 360.647 353.191 360.171 352.331L338.688 313.953C338.204 313.093 337.4 312.46 336.45 312.192C335.501 311.924 334.484 312.043 333.622 312.522Z" fill="#E6E6E6"/>
<path d="M220.341 313.953L198.858 352.331C198.376 353.192 198.256 354.21 198.524 355.159C198.792 356.109 199.427 356.913 200.289 357.395C201.15 357.877 202.168 357.997 203.118 357.729C204.068 357.461 204.873 356.826 205.355 355.965L226.838 317.587C227.076 317.161 227.229 316.691 227.286 316.206C227.343 315.721 227.304 315.229 227.171 314.759C227.039 314.288 226.814 313.849 226.512 313.465C226.209 313.082 225.833 312.761 225.407 312.523C224.98 312.284 224.511 312.132 224.025 312.074C223.54 312.017 223.048 312.056 222.577 312.189C222.107 312.322 221.667 312.546 221.283 312.849C220.9 313.151 220.58 313.527 220.341 313.953Z" fill="#E6E6E6"/>
<path d="M358.026 365.791C364.381 365.791 369.532 360.641 369.532 354.289C369.532 347.936 364.381 342.786 358.026 342.786C351.672 342.786 346.52 347.936 346.52 354.289C346.52 360.641 351.672 365.791 358.026 365.791Z" fill="#E6E6E6"/>
<path d="M366.148 71.475C372.503 71.475 377.654 66.3253 377.654 59.9729C377.654 53.6204 372.503 48.4707 366.148 48.4707C359.794 48.4707 354.642 53.6204 354.642 59.9729C354.642 66.3253 359.794 71.475 366.148 71.475Z" fill="#E6E6E6"/>
<path d="M278.839 44.4124C285.193 44.4124 290.345 39.2627 290.345 32.9102C290.345 26.5578 285.193 21.4081 278.839 21.4081C272.484 21.4081 267.333 26.5578 267.333 32.9102C267.333 39.2627 272.484 44.4124 278.839 44.4124Z" fill="#E6E6E6"/>
<path d="M195.59 70.1221C201.945 70.1221 207.096 64.9724 207.096 58.62C207.096 52.2675 201.945 47.1178 195.59 47.1178C189.236 47.1178 184.084 52.2675 184.084 58.62C184.084 64.9724 189.236 70.1221 195.59 70.1221Z" fill="#E6E6E6"/>
<path d="M203.035 365.791C209.39 365.791 214.541 360.641 214.541 354.289C214.541 347.936 209.39 342.786 203.035 342.786C196.681 342.786 191.529 347.936 191.529 354.289C191.529 360.641 196.681 365.791 203.035 365.791Z" fill="#E6E6E6"/>
<path d="M391.765 289.85L392.219 291H391.765V289.85Z" fill="#2F2E41"/>
</svg>
