<svg width="560" height="652" viewBox="0 0 560 652" fill="none" xmlns="http://www.w3.org/2000/svg">
<path d="M279.514 575.631C359.88 575.631 425.029 462.698 425.029 323.389C425.029 184.079 359.88 71.1458 279.514 71.1458C199.149 71.1458 134 184.079 134 323.389C134 462.698 199.149 575.631 279.514 575.631Z" fill="#E6E6E6"/>
<path d="M404.725 323.388C404.739 357.255 400.176 390.657 391.399 420.915C382.623 451.173 369.878 477.445 354.188 497.623C353.139 498.984 352.069 500.31 350.993 501.601C330.011 526.883 305.069 540.434 279.515 540.434C253.961 540.434 229.019 526.883 208.037 501.601C206.961 500.31 205.891 498.984 204.842 497.623C189.162 477.427 176.426 451.152 167.651 420.898C158.875 390.644 154.305 357.251 154.305 323.388C154.305 289.526 158.875 256.133 167.651 225.879C176.426 195.625 189.162 169.35 204.842 149.153C205.891 147.792 206.961 146.466 208.037 145.176C229.019 119.893 253.961 106.342 279.515 106.342C305.069 106.342 330.011 119.893 350.993 145.176C352.069 146.466 353.139 147.792 354.188 149.153C369.879 169.332 382.623 195.604 391.4 225.862C400.176 256.12 404.74 289.522 404.725 323.389L404.725 323.388Z" fill="white"/>
<path d="M279.515 521.663C342.686 521.663 393.896 432.892 393.896 323.388C393.896 213.883 342.686 125.113 279.515 125.113C216.344 125.113 165.133 213.883 165.133 323.388C165.133 432.892 216.344 521.663 279.515 521.663Z" fill="#277DD1"/>
<path d="M279.854 111.033C278.868 111.037 277.922 111.718 277.224 112.927C276.527 114.137 276.134 115.776 276.132 117.486V145.643C276.132 147.354 276.524 148.996 277.222 150.206C277.92 151.416 278.867 152.096 279.854 152.096C280.841 152.096 281.788 151.416 282.486 150.206C283.184 148.996 283.576 147.354 283.576 145.643V117.487C283.574 115.777 283.182 114.138 282.484 112.928C281.786 111.719 280.841 111.038 279.854 111.034V111.033Z" fill="white"/>
<path d="M354.184 149.16C353.136 147.799 352.066 146.473 350.99 145.183C350.344 145.11 349.699 145.33 349.117 145.822C348.535 146.313 348.038 147.06 347.673 147.987L338.53 171.252C338.251 171.952 338.055 172.74 337.953 173.572C337.851 174.404 337.844 175.263 337.935 176.099C338.025 176.935 338.209 177.732 338.477 178.444C338.746 179.156 339.093 179.769 339.498 180.248C339.904 180.727 340.36 181.062 340.841 181.234C341.321 181.406 341.817 181.411 342.298 181.25C342.78 181.089 343.239 180.764 343.648 180.295C344.057 179.825 344.408 179.22 344.682 178.514L353.826 155.249C354.174 154.366 354.389 153.347 354.451 152.283C354.514 151.22 354.422 150.146 354.184 149.16Z" fill="white"/>
<path d="M395.727 255.239C395.356 253.656 394.637 252.393 393.729 251.729C392.82 251.065 391.797 251.053 390.884 251.696L375.831 262.291C374.926 262.946 374.207 264.194 373.829 265.764C373.452 267.334 373.448 269.098 373.817 270.674C374.186 272.249 374.899 273.508 375.801 274.177C376.703 274.846 377.721 274.871 378.633 274.246L393.686 263.651C394.599 263.002 395.326 261.753 395.709 260.176C396.091 258.599 396.098 256.824 395.727 255.239Z" fill="white"/>
<path d="M220.495 171.252L211.351 147.987C210.987 147.06 210.489 146.313 209.907 145.822C209.326 145.33 208.68 145.11 208.035 145.183C206.958 146.473 205.889 147.799 204.84 149.16C204.602 150.146 204.51 151.22 204.573 152.283C204.636 153.347 204.851 154.366 205.199 155.249L214.342 178.514C214.901 179.917 215.756 180.879 216.723 181.192C217.689 181.505 218.688 181.142 219.501 180.183C220.313 179.224 220.874 177.746 221.06 176.073C221.246 174.399 221.043 172.666 220.495 171.252Z" fill="white"/>
<path d="M183.193 262.291L168.141 251.697C167.228 251.072 166.211 251.097 165.309 251.766C164.407 252.435 163.694 253.694 163.325 255.269C162.955 256.845 162.96 258.609 163.337 260.179C163.714 261.749 164.433 262.997 165.339 263.652L180.391 274.247C181.304 274.871 182.321 274.847 183.223 274.178C184.125 273.509 184.838 272.25 185.207 270.674C185.577 269.099 185.572 267.334 185.195 265.765C184.818 264.195 184.098 262.947 183.193 262.291Z" fill="white"/>
<path d="M279.854 494.683C278.868 494.687 277.922 495.368 277.224 496.577C276.527 497.786 276.134 499.425 276.132 501.136V529.293C276.132 531.004 276.524 532.645 277.222 533.855C277.92 535.065 278.867 535.745 279.854 535.745C280.841 535.745 281.788 535.065 282.486 533.855C283.184 532.645 283.576 531.004 283.576 529.293V501.137C283.574 499.426 283.182 497.787 282.484 496.578C281.786 495.369 280.841 494.687 279.854 494.683Z" fill="white"/>
<path d="M353.826 491.533L344.682 468.267C344.408 467.561 344.057 466.955 343.648 466.486C343.239 466.016 342.78 465.691 342.298 465.53C341.817 465.369 341.321 465.375 340.841 465.547C340.36 465.719 339.904 466.054 339.498 466.532C339.093 467.011 338.746 467.624 338.477 468.336C338.209 469.048 338.025 469.845 337.935 470.681C337.844 471.517 337.851 472.376 337.953 473.208C338.055 474.04 338.251 474.829 338.53 475.529L347.673 498.794C348.038 499.721 348.535 500.467 349.117 500.959C349.699 501.451 350.344 501.671 350.99 501.598C352.066 500.308 353.136 498.982 354.184 497.621C354.422 496.635 354.514 495.561 354.451 494.498C354.389 493.435 354.174 492.415 353.826 491.533Z" fill="white"/>
<path d="M393.683 383.131L378.631 372.536C377.718 371.911 376.701 371.936 375.799 372.605C374.897 373.274 374.184 374.533 373.815 376.109C373.445 377.684 373.45 379.449 373.827 381.018C374.204 382.588 374.923 383.836 375.829 384.492L390.881 395.086C391.794 395.711 392.811 395.686 393.713 395.017C394.615 394.348 395.328 393.089 395.697 391.514C396.067 389.938 396.062 388.174 395.685 386.604C395.308 385.034 394.588 383.786 393.683 383.131H393.683Z" fill="white"/>
<path d="M219.513 466.57C218.697 465.607 217.694 465.245 216.725 465.564C215.755 465.883 214.898 466.857 214.342 468.271L205.199 491.536C204.851 492.419 204.636 493.438 204.573 494.502C204.51 495.565 204.602 496.639 204.84 497.625C205.889 498.986 206.958 500.312 208.035 501.602C208.68 501.675 209.326 501.455 209.908 500.963C210.489 500.471 210.987 499.725 211.351 498.797L220.495 475.532C220.77 474.832 220.963 474.045 221.062 473.215C221.162 472.386 221.166 471.53 221.075 470.698C220.984 469.866 220.799 469.073 220.531 468.364C220.263 467.655 219.917 467.046 219.513 466.57Z" fill="white"/>
<path d="M185.24 376.078C184.869 374.495 184.15 373.232 183.242 372.568C182.334 371.904 181.31 371.892 180.397 372.535L165.344 383.13C164.887 383.443 164.47 383.91 164.117 384.505C163.765 385.099 163.483 385.809 163.29 386.593C163.096 387.376 162.994 388.219 162.99 389.071C162.985 389.924 163.078 390.77 163.263 391.56C163.449 392.35 163.722 393.068 164.069 393.674C164.415 394.279 164.827 394.76 165.281 395.087C165.735 395.415 166.222 395.584 166.714 395.583C167.206 395.583 167.693 395.414 168.146 395.085L183.199 384.491C184.112 383.842 184.84 382.593 185.223 381.016C185.606 379.44 185.613 377.664 185.243 376.079L185.24 376.078Z" fill="white"/>
<path d="M284.679 320.188C285.022 323.715 284.544 327.334 283.351 330.252C282.157 333.169 280.345 335.147 278.311 335.752L212.255 355.228C210.221 355.824 208.134 354.996 206.452 352.926C204.77 350.856 203.631 347.713 203.285 344.188C202.939 340.662 203.414 337.043 204.607 334.126C205.799 331.208 207.611 329.23 209.645 328.627L275.7 309.15C277.735 308.555 279.823 309.383 281.506 311.452C283.189 313.521 284.33 316.663 284.679 320.188Z" fill="#090814"/>
<path d="M354.202 447.053C353.253 448.707 351.965 449.641 350.619 449.65C349.273 449.659 347.98 448.743 347.024 447.102L275.916 324.805C274.976 323.156 274.45 320.93 274.452 318.613C274.454 316.295 274.983 314.071 275.925 312.426C276.867 310.78 278.145 309.846 279.482 309.824C280.819 309.803 282.107 310.697 283.066 312.313L354.174 434.608C355.129 436.253 355.668 438.487 355.673 440.82C355.679 443.153 355.15 445.394 354.203 447.052L354.202 447.053Z" fill="#090814"/>
<path d="M279.515 338.643C284.375 338.643 288.314 331.814 288.314 323.391C288.314 314.967 284.375 308.139 279.515 308.139C274.656 308.139 270.717 314.967 270.717 323.391C270.717 331.814 274.656 338.643 279.515 338.643Z" fill="#CCCCCC"/>
<path d="M218.907 58.9199C205.402 95.727 184.795 120.154 159.382 136.2C158.88 136.852 158.308 137.327 157.7 137.596C157.093 137.865 156.46 137.924 155.839 137.77C155.218 137.615 154.621 137.25 154.081 136.696C153.541 136.141 153.07 135.407 152.694 134.537C138.89 102.587 142.004 56.9241 160.225 32.5105C164.63 26.6184 169.666 22.3016 175.041 19.8108C180.416 17.3201 186.023 16.7049 191.536 18.0011C197.049 19.2974 202.359 22.4791 207.157 27.3617C211.955 32.2442 216.146 38.7303 219.486 46.4434L219.868 47.3274C220.244 48.1978 220.517 49.1882 220.673 50.242C220.828 51.2957 220.862 52.3922 220.773 53.4687C220.684 54.5453 220.473 55.5809 220.153 56.5164C219.833 57.4519 219.41 58.2689 218.908 58.9209L218.907 58.9199Z" fill="#E6E6E6"/>
<path d="M339.543 46.4436C342.883 38.7308 347.073 32.2449 351.871 27.3625C356.669 22.4801 361.979 19.2985 367.492 18.0023C373.005 16.7061 378.612 17.3211 383.987 19.8117C389.362 22.3023 394.398 26.6189 398.802 32.5108C417.021 56.9272 420.138 102.587 406.334 134.537C405.958 135.407 405.487 136.141 404.947 136.696C404.407 137.25 403.81 137.615 403.189 137.77C402.568 137.924 401.935 137.865 401.327 137.596C400.719 137.327 400.148 136.853 399.646 136.201C376.054 120.543 356.707 93.4477 340.12 58.9201C339.618 58.2682 339.195 57.4511 338.875 56.5156C338.555 55.5802 338.344 54.5445 338.255 53.468C338.166 52.3914 338.2 51.2949 338.356 50.2412C338.511 49.1875 338.784 48.1971 339.161 47.3266L339.543 46.4436Z" fill="#E6E6E6"/>
<path d="M333.622 541.927C332.762 542.765 332.128 544.16 331.86 545.806C331.592 547.452 331.711 549.215 332.191 550.709L353.674 617.258C354.159 618.743 354.963 619.835 355.911 620.295C356.859 620.754 357.873 620.545 358.732 619.712C359.591 618.879 360.224 617.49 360.494 615.849C360.764 614.208 360.647 612.449 360.171 610.956L338.688 544.407C338.204 542.917 337.4 541.819 336.45 541.354C335.501 540.889 334.484 541.095 333.622 541.927Z" fill="#E6E6E6"/>
<path d="M220.341 544.408L198.858 610.957C198.376 612.45 198.256 614.215 198.524 615.862C198.792 617.509 199.427 618.903 200.289 619.739C201.15 620.575 202.168 620.783 203.118 620.318C204.068 619.853 204.873 618.752 205.355 617.259L226.838 550.71C227.076 549.97 227.229 549.157 227.286 548.315C227.343 547.473 227.304 546.621 227.171 545.805C227.039 544.99 226.814 544.227 226.512 543.562C226.209 542.897 225.833 542.342 225.407 541.928C224.98 541.514 224.511 541.25 224.025 541.151C223.54 541.051 223.048 541.119 222.577 541.349C222.107 541.579 221.667 541.968 221.283 542.493C220.9 543.018 220.58 543.668 220.341 544.408Z" fill="#E6E6E6"/>
<path d="M358.026 634.297C364.381 634.297 369.532 625.367 369.532 614.352C369.532 603.336 364.381 594.406 358.026 594.406C351.672 594.406 346.52 603.336 346.52 614.352C346.52 625.367 351.672 634.297 358.026 634.297Z" fill="#E6E6E6"/>
<path d="M366.148 123.941C372.503 123.941 377.654 115.011 377.654 103.995C377.654 92.98 372.503 84.0502 366.148 84.0502C359.794 84.0502 354.642 92.98 354.642 103.995C354.642 115.011 359.794 123.941 366.148 123.941Z" fill="#E6E6E6"/>
<path d="M278.839 77.0129C285.193 77.0129 290.345 68.0831 290.345 57.0677C290.345 46.0522 285.193 37.1224 278.839 37.1224C272.484 37.1224 267.333 46.0522 267.333 57.0677C267.333 68.0831 272.484 77.0129 278.839 77.0129Z" fill="#E6E6E6"/>
<path d="M195.59 121.595C201.945 121.595 207.096 112.665 207.096 101.65C207.096 90.6341 201.945 81.7043 195.59 81.7043C189.236 81.7043 184.084 90.6341 184.084 101.65C184.084 112.665 189.236 121.595 195.59 121.595Z" fill="#E6E6E6"/>
<path d="M203.035 634.297C209.39 634.297 214.541 625.367 214.541 614.352C214.541 603.336 209.39 594.406 203.035 594.406C196.681 594.406 191.529 603.336 191.529 614.352C191.529 625.367 196.681 634.297 203.035 634.297Z" fill="#E6E6E6"/>
<path d="M391.765 502.613L392.219 504.607H391.765V502.613Z" fill="#2F2E41"/>
</svg>
