<svg width="48" height="48" viewBox="0 0 48 48" fill="none" xmlns="http://www.w3.org/2000/svg">
<rect width="48" height="48" rx="4" fill="#277DD1"/>
<path d="M32.4091 19C32.0966 18.0436 31.6847 17.1866 31.1733 16.429C30.6714 15.6619 30.0701 15.0085 29.3693 14.4688C28.678 13.929 27.892 13.517 27.0114 13.233C26.1307 12.9489 25.1648 12.8068 24.1136 12.8068C22.3902 12.8068 20.8229 13.2519 19.4119 14.142C18.0009 15.0322 16.8788 16.3438 16.0455 18.0767C15.2121 19.8097 14.7955 21.9356 14.7955 24.4545C14.7955 26.9735 15.2169 29.0994 16.0597 30.8324C16.9025 32.5653 18.0436 33.8769 19.483 34.767C20.9223 35.6572 22.5417 36.1023 24.3409 36.1023C26.0076 36.1023 27.4754 35.7472 28.7443 35.0369C30.0227 34.3172 31.017 33.304 31.7273 31.9972C32.447 30.6809 32.8068 29.1326 32.8068 27.3523L33.8864 27.5795H25.1364V24.4545H36.2159V27.5795C36.2159 29.9754 35.7045 32.0587 34.6818 33.8295C33.6686 35.6004 32.267 36.9735 30.4773 37.9489C28.697 38.9148 26.6515 39.3977 24.3409 39.3977C21.7652 39.3977 19.5019 38.7917 17.5511 37.5795C15.6098 36.3674 14.0947 34.6439 13.0057 32.4091C11.9261 30.1742 11.3864 27.5227 11.3864 24.4545C11.3864 22.1534 11.6941 20.0843 12.3097 18.2472C12.9347 16.4006 13.8153 14.8286 14.9517 13.5312C16.0881 12.2339 17.4328 11.2396 18.9858 10.5483C20.5388 9.85701 22.2481 9.51136 24.1136 9.51136C25.6477 9.51136 27.0777 9.74337 28.4034 10.2074C29.7386 10.6619 30.9271 11.3106 31.9688 12.1534C33.0199 12.9867 33.8958 13.9858 34.5966 15.1506C35.2973 16.3059 35.7803 17.589 36.0455 19H32.4091Z" fill="white"/>
</svg>
